<?xml version="1.0" encoding="UTF-8" standalone="no"?>
<!-- Created with Inkscape (http://www.inkscape.org/) -->

<svg
   xmlns:dc="http://purl.org/dc/elements/1.1/"
   xmlns:cc="http://creativecommons.org/ns#"
   xmlns:rdf="http://www.w3.org/1999/02/22-rdf-syntax-ns#"
   xmlns:svg="http://www.w3.org/2000/svg"
   xmlns="http://www.w3.org/2000/svg"
   xmlns:sodipodi="http://sodipodi.sourceforge.net/DTD/sodipodi-0.dtd"
   xmlns:inkscape="http://www.inkscape.org/namespaces/inkscape"
   version="1.1"
   id="svg2"
   xml:space="preserve"
   width="138.66667"
   height="126.06667"
   viewBox="0 0 138.66667 126.06667"
   sodipodi:docname="Seremi_culturas_CMYK-LOS_RIÌOS.svg"
   inkscape:version="0.92.4 (unknown)"><metadata
     id="metadata8"><rdf:RDF><cc:Work
         rdf:about=""><dc:format>image/svg+xml</dc:format><dc:type
           rdf:resource="http://purl.org/dc/dcmitype/StillImage" /><dc:title></dc:title></cc:Work></rdf:RDF></metadata><defs
     id="defs6" /><sodipodi:namedview
     pagecolor="#ffffff"
     bordercolor="#666666"
     borderopacity="1"
     objecttolerance="10"
     gridtolerance="10"
     guidetolerance="10"
     inkscape:pageopacity="0"
     inkscape:pageshadow="2"
     inkscape:window-width="1920"
     inkscape:window-height="1025"
     id="namedview4"
     showgrid="false"
     inkscape:zoom="5.2948871"
     inkscape:cx="79.615537"
     inkscape:cy="50.287607"
     inkscape:window-x="0"
     inkscape:window-y="27"
     inkscape:window-maximized="1"
     inkscape:current-layer="g10" /><g
     id="g10"
     inkscape:groupmode="layer"
     inkscape:label="ink_ext_XXXXXX"
     transform="matrix(1.3333333,0,0,-1.3333333,0,126.06667)"><g
       id="g12"
       transform="scale(0.1)"><path
         d="M 1040.02,0.00390625 H 427.672 V 945.469 H 1040.02 V 0.00390625"
         style="fill:#ee2c3f;fill-opacity:1;fill-rule:nonzero;stroke:none"
         id="path14"
         inkscape:connector-curvature="0" /><path
         d="M 427.66,0.00390625 H 0.00390625 V 945.469 H 427.66 V 0.00390625"
         style="fill:#1a69ba;fill-opacity:1;fill-rule:nonzero;stroke:none"
         id="path16"
         inkscape:connector-curvature="0" /><path
         d="m 251.801,758.414 v -14.723 c 2.648,6.274 1.445,11.442 0,14.723"
         style="fill:#ffffff;fill-opacity:1;fill-rule:nonzero;stroke:none"
         id="path18"
         inkscape:connector-curvature="0" /><path
         d="m 282.758,845.012 c -0.598,-1.332 -2.512,-1.332 -2.762,-3.012 -1.594,1.438 1.356,4.68 2.762,3.012 m 10.09,0.593 c 1.406,0.848 2.683,3.665 4.832,2.282 0.996,-0.543 1.992,-1.582 3.097,-2.391 1.133,-0.812 2.391,-1.512 2.899,-2.531 0.637,-1.285 -1.055,-4.32 -2.977,-1.606 -1.269,2.016 -3.058,5.684 -5.89,4.246 -2.313,-1.171 -3.899,-2.832 -4.493,-1.261 -0.175,0.789 1.661,0.769 2.532,1.261 m 0.293,-2.335 c 0.886,1.093 1.211,-3.629 4.89,-2.266 -2.644,-3.176 -6.172,0.098 -4.89,2.266 m -12.453,-4.95 c 0.382,0.133 -0.184,2.055 1.718,2.196 1.731,0.086 4.328,-1.418 4.649,-3.063 0.383,-1.871 -1.16,-6.422 4.816,-7.078 0,0 -0.051,-0.945 -0.117,-1.91 h -0.031 c -0.106,-1.063 -0.36,-2.188 -0.86,-3.156 0.383,0.027 0.735,0.027 1.114,0 7.988,-0.371 12.5,0.25 14.777,2.648 0,0 1.375,1.473 2.07,2.91 2.047,4.184 2.344,7.938 1.258,11.02 h -0.019 c -0.059,0.195 -0.137,0.398 -0.204,0.605 -0.156,0.375 -0.332,0.738 -0.519,1.078 -1.805,3.176 -6.453,7.223 -12.246,9.157 -0.352,0.097 -0.762,0.144 -1.184,0.144 -0.055,0 -0.094,0.039 -0.094,0.078 0,0.028 0.094,0.074 0.235,0.098 l -0.012,0.016 h 0.031 c 0.145,0.039 1.25,-0.04 1.25,-0.04 4.297,-0.507 11.551,-4.773 13.016,-9.097 1.398,0.836 2.637,3.289 2.852,5.363 v 0 c 0.117,0.395 -0.176,3.004 0.949,5.309 0.332,0.695 0,1.488 -0.586,1.789 -0.606,0.285 -1.406,0.019 -1.75,-0.657 -1.063,-2.214 -3.582,-1.003 -2.52,1.219 0.332,0.723 0,1.489 -0.578,1.793 -0.613,0.27 -1.402,0.039 -1.754,-0.637 -1.015,-2.152 -3.449,-0.96 -2.461,1.168 0.34,0.7 0.02,1.497 -0.558,1.778 -0.594,0.277 -1.414,0.054 -1.77,-0.645 -1.023,-2.226 -3.551,-0.98 -2.5,1.227 0.317,0.703 0,1.492 -0.594,1.797 -0.605,0.258 -1.406,0.039 -1.738,-0.664 -0.781,-1.641 -1.418,-2.602 -2.117,-3.36 4.805,-0.968 9.824,-3.57 13.074,-6.929 0,0 1.328,-1.469 1.465,-1.758 0,-0.016 0.031,-0.016 0.031,-0.055 0,0 0,0 -0.031,0.039 0.117,-0.246 0.176,-0.43 0.137,-0.496 -0.028,-0.051 -0.137,-0.012 -0.157,0.047 -0.488,0.601 -0.996,1.109 -1.511,1.484 -5.352,4.473 -10.039,6.328 -13.867,6.852 -2.598,-0.293 -1.836,-3.188 -1.567,-5.074 -4.324,0.949 -7.625,-2.27 -7.898,-5.266 0,-1.113 0.246,-2.262 0.82,-3.527 0.051,-0.063 0.039,-0.196 -0.039,-0.211 -0.176,-0.086 -0.809,0.418 -1.141,1.304 -0.265,0.661 -0.461,1.438 -0.547,2.207 -3.546,-0.21 -6.769,-2.074 -6.515,-5.316 0.117,-1.953 2.375,-4.324 3.223,-4.387"
         style="fill:#ffffff;fill-opacity:1;fill-rule:nonzero;stroke:none"
         id="path20"
         inkscape:connector-curvature="0" /><path
         d="m 377.453,688.438 c -2.476,2.968 -8.953,1.496 -8.953,1.496 3.488,10.379 -6.121,13.16 -6.121,13.16 -3.418,0.906 -5.684,0.246 -7.149,-0.758 -0.031,-0.02 -0.058,-0.043 -0.097,-0.055 -0.02,-0.023 -0.039,-0.039 -0.07,-0.082 -0.254,-0.191 -0.477,-0.344 -0.684,-0.566 -0.848,-0.91 -1.406,-2.094 -1.406,-3.453 0,-2.754 2.246,-4.981 5.011,-4.981 1.051,0 2.032,0.336 2.852,0.91 0.984,0.711 1.727,1.746 2,2.954 1.328,-0.848 1.824,-2.34 1.824,-2.34 2.805,-8.852 -7.164,-12.02 -7.164,-12.02 -21.953,-6.59 -35.41,4.738 -35.41,4.738 l 3.836,2.071 c 1.32,0.586 2.531,0.761 3.476,0.761 -0.019,-0.187 -0.046,-0.418 -0.046,-0.648 0,-2.398 1.953,-4.32 4.336,-4.32 2.41,0 4.355,1.922 4.355,4.32 0,0.801 -0.215,1.535 -0.59,2.16 l 0.051,0.016 c -0.184,0.301 -0.32,0.465 -0.32,0.465 -2.598,3.898 -11.465,1.32 -11.465,1.32 2.976,7.285 0.34,12.543 0.34,12.543 -1.629,2.68 -1.336,3.676 -1.336,3.676 0,2.593 -0.637,2.828 -0.637,2.828 -1.309,1.836 -3.731,0.859 -3.731,0.859 -3.562,-0.781 -4.324,0.676 -4.324,0.676 -2.961,2.078 -4.258,0.809 -4.258,0.809 -1.281,-0.86 0.489,-3.075 0.489,-3.075 -3.157,0 -4.082,-4.015 -4.082,-4.015 -1.309,-6.684 4.218,-7.235 4.218,-7.235 3.934,-0.207 4.024,3.028 4.024,3.028 0.488,3.07 -3.906,3.242 -3.906,3.242 0.75,1.824 2.078,1.797 2.078,1.797 4.59,1.133 6.711,-4.059 6.711,-4.059 3.672,-5.836 -1.047,-11.332 -1.047,-11.332 -0.762,-0.812 -1.524,-0.32 -1.524,-0.32 -2.578,1.101 -6.336,3.871 -6.336,3.871 -0.109,0.078 -0.226,0.148 -0.332,0.226 h -1.562 c -1.699,0 -3.547,-0.566 -4.777,-1.039 1.769,-1.878 7.558,-6.742 7.558,-6.742 -4.355,-3.39 -6.855,-1.051 -6.855,-1.051 -2.09,2.25 -1.602,6.059 -1.278,7.582 -0.175,-0.078 -0.343,-0.148 -0.468,-0.203 -1.993,-0.886 -4.036,-1.699 -6.086,-2.511 2.07,-3.551 5.324,-8.946 5.324,-8.946 -5.012,-1.843 -6.125,4.895 -6.348,8.555 -0.976,-0.387 -1.953,-0.762 -2.929,-1.117 0.242,-0.813 0.253,-1.438 0.253,-1.438 0.34,-3.722 3.719,-8.172 3.719,-8.172 -3.594,0.75 -5.789,-1.574 -5.789,-1.574 -2.277,-1.918 -2.238,-4.543 -2.09,-5.578 0.086,-1.344 1.172,-2.414 2.547,-2.414 1.387,0 2.531,1.145 2.531,2.547 0,1.375 -1.074,2.488 -2.433,2.562 1.125,2.762 3.777,0.547 3.777,0.547 3.879,-3.488 -2.207,-7.414 -2.207,-7.414 -4.344,-2.894 -8.465,2.641 -8.465,2.641 4.582,8.113 5.422,13.781 5.254,17.293 -1.551,-0.547 -3.144,-1.063 -4.746,-1.57 2.18,-7.313 -2.91,-11.497 -2.91,-11.497 -1.465,1.004 -1.66,4.93 -1.66,4.93 -0.438,1.699 -0.965,3.281 -1.516,4.77 -1.375,-0.371 -2.73,-0.731 -4.129,-1.09 1.535,-4.586 2.207,-11.305 2.207,-11.305 -0.808,-0.969 -3.281,-1.211 -3.281,-1.211 -3.562,-0.32 -1.699,1.68 -1.699,1.68 1.758,1.512 1.398,2.605 1.398,2.605 -1.078,2.457 -4.972,0.168 -4.972,0.168 -5.223,-2.89 -3.661,-5.965 -3.661,-5.965 0.653,-1.882 5.918,-3.718 5.918,-3.718 -2.832,-2.168 -8.3,-1.285 -8.976,-1.133 -0.164,1.508 -1.238,2.738 -2.695,3.129 -0.204,0.062 -0.34,0.097 -0.34,0.097 -1.907,0.192 -2.895,-0.621 -3.399,-1.371 -0.273,-0.347 -0.468,-0.722 -0.625,-1.132 l -3.215,0.679 c -2.238,0.336 -3.515,6.746 -4.199,12.364 -0.887,-0.118 -1.777,-0.231 -2.683,-0.325 0.855,-5.98 1.961,-11.308 1.961,-11.308 -1.106,0 -5.829,3.285 -5.829,3.285 -5.89,3.566 -9.933,2.437 -10.058,2.379 -2.949,-0.531 -5.207,-3.11 -5.207,-6.211 0,-3.492 2.844,-6.324 6.308,-6.324 3.426,0 6.219,2.738 6.301,6.14 2.254,-1.062 4.285,-2.332 4.285,-2.332 5.676,-3.769 10.989,-4.191 12.422,-4.203 0.41,-2.133 2.278,-3.699 4.492,-3.699 1.731,0 3.254,0.945 3.996,2.39 12.098,0.403 16.532,5.743 16.532,5.743 1.281,1.679 1.562,0.699 1.562,0.699 4.434,-6.414 13.02,-2.504 13.02,-2.504 1.66,0.809 2.011,-0.273 2.011,-0.273 1.739,-2.75 4.383,-1.297 4.383,-1.297 3.43,1.754 1.407,3.886 1.407,3.886 -1.133,1.188 0.253,1.133 0.253,1.133 4.036,-0.586 4.836,1.735 4.836,1.735 0.821,1.832 -2.074,3.418 -2.074,3.418 -0.789,1.015 0.766,1.828 0.766,1.828 2.39,1.379 2.012,2.761 2.012,2.761 3.007,-0.039 2.781,1.321 2.781,1.321 0.066,1.211 -3.711,1.144 -3.711,1.144 -2.977,0.309 -2.344,1.832 -2.344,1.832 4.414,0.176 11.074,2.121 11.074,2.121 9.739,-7.929 24.2,-9.839 24.2,-9.839 0.292,-1.434 -0.215,-3.438 -0.282,-3.68 -0.078,0.015 -0.168,0.015 -0.254,0.015 -1.261,0 -2.316,-1.007 -2.316,-2.293 0,-1.253 1.055,-2.289 2.316,-2.289 0.235,0 0.653,0.098 0.653,0.098 4.629,1.242 5,8.059 5,8.059 13.203,-1.274 22.207,8.683 22.207,8.683 1.301,1.114 1.941,0.77 2.218,0.414 0.008,0 0.008,0 0.04,-0.039 0.683,-0.847 1.718,-1.383 2.91,-1.383 1.277,0 2.422,0.649 3.093,1.61 0.442,0.793 0.625,1.515 0.684,2.113 v 0.063 0.031 c 0.051,1.527 -0.754,2.473 -0.754,2.473"
         style="fill:#ffffff;fill-opacity:1;fill-rule:nonzero;stroke:none"
         id="path22"
         inkscape:connector-curvature="0" /><path
         d="m 218.48,671.473 c 1.262,0.605 1.504,2.054 1.504,2.054 0.246,3.61 -2.371,5.243 -2.441,5.293 -1.563,-0.05 -3.133,-0.09 -4.715,-0.101 h -0.012 -0.019 c -1.582,0.011 -3.145,0.051 -4.727,0.101 -0.058,-0.05 -2.675,-1.683 -2.429,-5.293 0,0 0.254,-1.449 1.504,-2.054 0,0 -3.332,-1.422 -3.379,-3.723 0,0 -0.383,-1.719 2.566,-4.098 0,0 2.148,-2.39 2.766,-4.23 0,0 0.183,-2.555 3.718,-2.555 3.528,0 3.704,2.555 3.704,2.555 0.64,1.84 2.781,4.23 2.781,4.23 2.941,2.379 2.578,4.098 2.578,4.098 -0.059,2.301 -3.399,3.723 -3.399,3.723"
         style="fill:#ffffff;fill-opacity:1;fill-rule:nonzero;stroke:none"
         id="path24"
         inkscape:connector-curvature="0" /><path
         d="m 243.141,686.09 1.726,0.195 -1.101,2.016 z"
         style="fill:#ffffff;fill-opacity:1;fill-rule:nonzero;stroke:none"
         id="path26"
         inkscape:connector-curvature="0" /><path
         d="m 184.789,686.008 1.719,-0.176 -0.664,2.219 z"
         style="fill:#ffffff;fill-opacity:1;fill-rule:nonzero;stroke:none"
         id="path28"
         inkscape:connector-curvature="0" /><path
         d="m 177.992,690.801 c -0.078,0.035 -0.164,0.035 -0.281,0.054 l -0.363,-2.679 c 0.586,-0.055 0.996,-0.094 1.211,-0.039 0.214,0.039 0.39,0.172 0.527,0.355 0.156,0.176 0.234,0.442 0.293,0.801 0.07,0.484 0,0.852 -0.215,1.074 -0.203,0.227 -0.586,0.375 -1.172,0.434"
         style="fill:#ffffff;fill-opacity:1;fill-rule:nonzero;stroke:none"
         id="path30"
         inkscape:connector-curvature="0" /><path
         d="m 203.09,688.738 c -0.586,0.024 -1.055,-0.207 -1.348,-0.66 -0.32,-0.453 -0.496,-1.187 -0.527,-2.211 -0.039,-1.109 0.078,-1.883 0.344,-2.379 0.261,-0.48 0.703,-0.765 1.289,-0.765 0.605,-0.028 1.062,0.168 1.394,0.593 0.344,0.442 0.508,1.207 0.559,2.329 0.039,1.003 -0.09,1.773 -0.352,2.285 -0.285,0.504 -0.734,0.789 -1.359,0.808"
         style="fill:#ffffff;fill-opacity:1;fill-rule:nonzero;stroke:none"
         id="path32"
         inkscape:connector-curvature="0" /><path
         d="m 224.965,688.762 c -0.613,-0.02 -1.024,-0.262 -1.317,-0.758 -0.277,-0.473 -0.39,-1.211 -0.332,-2.227 0.039,-1.097 0.204,-1.882 0.536,-2.339 0.312,-0.473 0.742,-0.715 1.339,-0.704 0.594,0.047 1.036,0.305 1.336,0.735 0.301,0.457 0.422,1.254 0.371,2.344 -0.039,1.003 -0.214,1.781 -0.535,2.265 -0.312,0.473 -0.773,0.719 -1.398,0.684"
         style="fill:#ffffff;fill-opacity:1;fill-rule:nonzero;stroke:none"
         id="path34"
         inkscape:connector-curvature="0" /><path
         d="m 165.219,688.855 1.711,-0.304 -0.508,2.258 z"
         style="fill:#ffffff;fill-opacity:1;fill-rule:nonzero;stroke:none"
         id="path36"
         inkscape:connector-curvature="0" /><path
         d="m 131.891,702.051 -0.957,-2.606 0.32,-0.132 c 0.527,-0.188 0.93,-0.211 1.172,-0.02 0.265,0.168 0.48,0.441 0.605,0.816 0.129,0.336 0.157,0.641 0.129,0.907 -0.058,0.242 -0.187,0.441 -0.363,0.578 -0.156,0.136 -0.477,0.308 -0.906,0.457"
         style="fill:#ffffff;fill-opacity:1;fill-rule:nonzero;stroke:none"
         id="path38"
         inkscape:connector-curvature="0" /><path
         d="m 138.785,698.938 c -0.414,-0.356 -0.781,-1 -1.094,-1.981 -0.332,-1.059 -0.441,-1.859 -0.304,-2.398 0.148,-0.551 0.5,-0.911 1.054,-1.098 0.567,-0.164 1.086,-0.113 1.504,0.246 0.422,0.324 0.813,1.004 1.145,2.074 0.301,0.946 0.39,1.739 0.262,2.285 -0.125,0.563 -0.489,0.946 -1.075,1.149 -0.586,0.172 -1.082,0.074 -1.492,-0.277"
         style="fill:#ffffff;fill-opacity:1;fill-rule:nonzero;stroke:none"
         id="path40"
         inkscape:connector-curvature="0" /><path
         d="m 148.363,696.758 c -0.086,0.027 -0.175,0.043 -0.293,0.082 l -0.691,-2.606 c 0.566,-0.175 0.957,-0.226 1.191,-0.203 0.215,0.016 0.399,0.125 0.586,0.262 0.164,0.187 0.293,0.426 0.379,0.773 0.117,0.489 0.117,0.864 -0.078,1.094 -0.176,0.262 -0.555,0.43 -1.094,0.598"
         style="fill:#ffffff;fill-opacity:1;fill-rule:nonzero;stroke:none"
         id="path42"
         inkscape:connector-curvature="0" /><path
         d="m 279.105,696.668 c -0.273,0.117 -0.683,0.098 -1.257,-0.059 -0.071,-0.019 -0.149,-0.074 -0.266,-0.093 l 0.715,-2.582 c 0.574,0.156 0.945,0.3 1.133,0.429 0.175,0.129 0.312,0.301 0.359,0.532 0.059,0.242 0.051,0.503 -0.047,0.847 -0.137,0.488 -0.351,0.774 -0.637,0.926"
         style="fill:#ffffff;fill-opacity:1;fill-rule:nonzero;stroke:none"
         id="path44"
         inkscape:connector-curvature="0" /><path
         d="m 293.637,697.465 1.621,0.629 -1.57,1.668 z"
         style="fill:#ffffff;fill-opacity:1;fill-rule:nonzero;stroke:none"
         id="path46"
         inkscape:connector-curvature="0" /><path
         d="m 296.059,695.691 -0.223,0.539 c 0.301,0.118 0.477,0.208 0.527,0.286 0.047,0.097 0.067,0.191 0.02,0.285 -0.031,0.078 -0.09,0.148 -0.195,0.262 l -0.098,0.132 -0.402,0.418 -2.032,-0.758 -0.019,-0.394 c 0,-0.258 0.019,-0.457 0.051,-0.531 0.058,-0.188 0.156,-0.262 0.281,-0.301 0.148,0 0.324,0.023 0.586,0.113 l 0.195,-0.551 -2.207,-0.824 -0.195,0.528 c 0.41,0.171 0.636,0.679 0.644,1.488 l 0.098,5.93 0.586,0.23 4.043,-4.363 c 0.371,-0.457 0.691,-0.692 0.898,-0.739 0.207,-0.023 0.371,-0.023 0.547,0.047 l 0.195,-0.554 z m -10.692,-3.668 -0.121,0.442 1.914,6.976 -1.09,-0.363 c -0.703,-0.238 -1.132,-0.449 -1.32,-0.648 -0.195,-0.235 -0.273,-0.625 -0.262,-1.192 l -0.558,-0.211 -0.469,1.875 5.703,1.848 0.129,-0.461 -1.945,-6.98 1.543,0.527 c 0.437,0.129 0.761,0.281 0.929,0.418 0.184,0.152 0.313,0.379 0.418,0.621 0.09,0.27 0.129,0.605 0.129,1 l 0.567,0.176 0.554,-2.043 z m -3.34,-0.996 c -0.254,0.188 -0.781,0.68 -1.582,1.489 -0.39,0.402 -0.664,0.66 -0.812,0.773 -0.156,0.098 -0.281,0.156 -0.399,0.172 -0.129,0 -0.39,-0.035 -0.754,-0.152 l 0.469,-1.621 c 0.059,-0.305 0.176,-0.528 0.324,-0.606 0.145,-0.094 0.372,-0.094 0.711,0 l 0.118,0.031 0.168,-0.558 -3.692,-1.016 -0.156,0.559 0.113,0.019 c 0.344,0.106 0.551,0.211 0.625,0.379 0.07,0.149 0.063,0.375 -0.015,0.692 L 276,695.242 c -0.098,0.332 -0.176,0.52 -0.34,0.61 -0.129,0.101 -0.375,0.101 -0.695,0 l -0.156,-0.012 -0.149,0.562 2.738,0.758 0.625,0.176 c 0.606,0.152 1.063,0.277 1.368,0.312 0.281,0.04 0.593,0 0.906,-0.078 0.312,-0.054 0.598,-0.226 0.82,-0.449 0.227,-0.211 0.379,-0.488 0.461,-0.773 0.242,-0.809 -0.082,-1.508 -0.91,-2.055 0.293,-0.113 0.812,-0.492 1.543,-1.152 0.586,-0.528 0.988,-0.817 1.191,-0.903 0.215,-0.082 0.411,-0.097 0.625,-0.023 l 0.149,-0.567 z m -13.222,-3.351 -0.149,0.574 0.149,0.039 c 0.332,0.094 0.523,0.188 0.613,0.34 0.098,0.168 0.098,0.383 0.02,0.719 l -0.977,4.097 c -0.078,0.336 -0.184,0.52 -0.32,0.614 -0.137,0.097 -0.371,0.097 -0.723,0.043 l -0.137,-0.043 -0.109,0.574 5.906,1.371 0.531,-1.77 -0.566,-0.132 c -0.195,0.281 -0.363,0.531 -0.52,0.679 -0.175,0.153 -0.332,0.246 -0.476,0.262 -0.137,0.023 -0.363,0 -0.664,-0.074 l -1.309,-0.297 0.574,-2.399 0.637,0.153 c 0.301,0.07 0.488,0.164 0.586,0.297 0.047,0.152 0.078,0.398 0,0.738 l 0.574,0.129 0.559,-2.36 -0.566,-0.117 c -0.02,0.047 -0.02,0.075 -0.02,0.102 -0.051,0.203 -0.129,0.359 -0.258,0.492 -0.125,0.148 -0.347,0.184 -0.719,0.094 l -0.656,-0.153 0.403,-1.718 c 0.085,-0.332 0.144,-0.535 0.214,-0.606 0.059,-0.113 0.164,-0.187 0.352,-0.187 0.195,-0.039 0.437,0 0.789,0.058 0.43,0.129 0.762,0.246 0.957,0.403 0.176,0.175 0.324,0.406 0.43,0.73 0.097,0.317 0.148,0.66 0.148,1.004 l 0.582,0.148 0.481,-2.308 z m -3.235,4.867 0.45,-2.348 c 0.109,-0.496 0.148,-0.906 0.148,-1.25 0,-0.316 -0.09,-0.644 -0.273,-0.996 -0.168,-0.344 -0.461,-0.656 -0.84,-0.89 -0.395,-0.282 -0.86,-0.45 -1.367,-0.567 -0.54,-0.097 -1.036,-0.109 -1.504,0 -0.45,0.078 -0.832,0.227 -1.114,0.477 -0.254,0.226 -0.48,0.484 -0.636,0.789 -0.149,0.285 -0.243,0.656 -0.34,1.078 l -0.539,2.793 c -0.059,0.32 -0.164,0.527 -0.313,0.644 -0.117,0.09 -0.379,0.09 -0.75,0.02 l -0.129,0.566 3.703,0.731 0.106,-0.582 -0.117,-0.02 c -0.352,-0.058 -0.547,-0.175 -0.633,-0.3 -0.098,-0.172 -0.098,-0.395 -0.031,-0.7 l 0.539,-2.777 c 0.105,-0.492 0.222,-0.871 0.359,-1.148 0.137,-0.262 0.363,-0.493 0.684,-0.622 0.332,-0.175 0.695,-0.214 1.062,-0.117 0.434,0.055 0.766,0.246 1.02,0.528 0.254,0.285 0.398,0.562 0.429,0.91 0.028,0.324 -0.011,0.777 -0.109,1.336 l -0.469,2.343 c -0.136,0.715 -0.566,1.004 -1.238,0.868 l -0.117,0.566 2.597,0.508 0.118,-0.567 c -0.176,-0.035 -0.325,-0.089 -0.461,-0.226 -0.145,-0.106 -0.235,-0.242 -0.254,-0.414 -0.039,-0.168 -0.039,-0.363 0.019,-0.633 m -8.269,-1.762 c -0.149,0.324 -0.293,0.551 -0.449,0.735 -0.176,0.172 -0.325,0.285 -0.481,0.3 -0.168,0.055 -0.398,0.039 -0.683,-0.015 l -1.141,-0.172 0.391,-2.434 0.554,0.094 c 0.254,0.059 0.449,0.133 0.528,0.258 0.097,0.125 0.128,0.367 0.089,0.723 l 0.567,0.097 0.39,-2.418 -0.57,-0.097 c -0.074,0.378 -0.183,0.625 -0.32,0.699 -0.106,0.113 -0.321,0.152 -0.574,0.094 l -0.547,-0.094 0.3,-1.91 c 0.059,-0.297 0.137,-0.528 0.266,-0.633 0.125,-0.121 0.371,-0.156 0.731,-0.082 l 0.144,0.019 0.102,-0.562 -3.801,-0.629 -0.086,0.594 0.098,0.035 c 0.351,0.019 0.554,0.125 0.664,0.277 0.078,0.153 0.078,0.383 0.027,0.684 l -0.652,4.191 c -0.051,0.32 -0.137,0.508 -0.266,0.625 -0.137,0.106 -0.379,0.145 -0.723,0.098 l -0.136,-0.028 -0.078,0.571 5.898,0.941 0.344,-1.871 z m -12.246,-7.023 -0.071,0.566 c 0.332,0.043 0.52,0.094 0.586,0.188 0.059,0.054 0.078,0.136 0.078,0.226 0,0.078 -0.046,0.188 -0.125,0.305 l -0.078,0.164 -0.254,0.492 -2.187,-0.242 -0.09,-0.359 c -0.078,-0.282 -0.117,-0.45 -0.098,-0.547 0.02,-0.184 0.098,-0.285 0.215,-0.336 0.11,-0.063 0.293,-0.063 0.559,-0.047 l 0.098,-0.563 -2.344,-0.289 -0.059,0.571 c 0.438,0.078 0.762,0.48 0.965,1.285 l 1.563,5.742 0.617,0.074 2.84,-5.23 c 0.285,-0.485 0.515,-0.832 0.703,-0.934 0.195,-0.07 0.371,-0.086 0.527,-0.086 l 0.078,-0.57 z m -10.879,-1.051 -0.051,0.574 0.09,0.028 c 0.359,0.007 0.594,0.105 0.683,0.222 0.106,0.168 0.125,0.391 0.106,0.719 l -0.371,4.188 c -0.028,0.324 -0.117,0.546 -0.235,0.66 -0.109,0.113 -0.351,0.172 -0.703,0.152 l -0.097,-0.039 -0.047,0.586 3.808,0.34 0.047,-0.59 -0.136,-0.008 c -0.352,-0.027 -0.575,-0.117 -0.684,-0.25 -0.098,-0.152 -0.125,-0.375 -0.098,-0.699 l 0.352,-4.039 c 0.031,-0.301 0.051,-0.535 0.098,-0.61 0.05,-0.093 0.136,-0.183 0.312,-0.222 0.148,-0.074 0.391,-0.074 0.773,-0.035 0.625,0.035 1.075,0.238 1.356,0.582 0.273,0.336 0.461,0.777 0.535,1.308 l 0.559,0.055 0.168,-2.359 z m -6.055,0.563 c -0.683,-0.762 -1.625,-1.137 -2.844,-1.211 -0.847,-0.02 -1.601,0.117 -2.238,0.449 -0.66,0.32 -1.129,0.801 -1.434,1.359 -0.3,0.606 -0.476,1.176 -0.507,1.778 -0.008,0.621 0.129,1.246 0.488,1.882 0.324,0.629 0.793,1.102 1.379,1.399 0.605,0.344 1.238,0.515 1.941,0.535 1.258,0.051 2.266,-0.266 3,-0.973 0.742,-0.687 1.129,-1.558 1.172,-2.617 0.039,-0.996 -0.265,-1.871 -0.957,-2.601 m -11.867,5.218 c -0.184,0 -0.332,-0.05 -0.508,-0.105 -0.144,-0.113 -0.254,-0.246 -0.301,-0.399 -0.07,-0.164 -0.097,-0.379 -0.097,-0.683 l -0.02,-5.453 h -0.683 l -4.59,5.23 -0.012,-3.262 c -0.02,-0.535 0.09,-0.871 0.266,-1.015 0.195,-0.153 0.449,-0.231 0.742,-0.231 V 682 h -2.68 v 0.57 c 0.219,0 0.434,0.055 0.59,0.153 0.184,0.129 0.293,0.257 0.32,0.394 0.047,0.153 0.078,0.375 0.09,0.699 l 0.02,3.625 c 0,0.735 -0.356,1.094 -1.028,1.094 v 0.602 l 2.422,-0.039 3.887,-4.36 0.012,2.606 c 0,0.773 -0.332,1.168 -0.989,1.168 v 0.586 l 2.559,-0.012 z m -10.438,-5.508 c -0.753,-0.675 -1.718,-0.98 -2.941,-0.941 -0.848,0.02 -1.582,0.234 -2.207,0.609 -0.633,0.391 -1.055,0.883 -1.309,1.489 -0.254,0.601 -0.363,1.187 -0.332,1.75 0.02,0.683 0.215,1.269 0.594,1.871 0.383,0.625 0.871,1.039 1.508,1.281 0.613,0.309 1.277,0.402 1.961,0.402 1.281,-0.078 2.246,-0.457 2.922,-1.211 0.672,-0.734 1.004,-1.66 0.976,-2.722 -0.058,-0.981 -0.441,-1.824 -1.172,-2.528 m -8.476,6.106 -4.473,-5.719 1.649,-0.125 c 0.449,-0.012 0.793,-0.012 1.023,0.067 0.199,0.058 0.422,0.222 0.617,0.41 0.168,0.203 0.352,0.496 0.489,0.883 l 0.617,-0.051 -0.293,-2.117 -6.379,0.472 0.012,0.461 4.421,5.731 -1.152,0.097 c -0.73,0.055 -1.23,0 -1.473,-0.156 -0.246,-0.125 -0.468,-0.449 -0.695,-0.976 l -0.547,0.054 0.246,1.871 5.977,-0.441 z m -7.656,-6.106 -3.528,0.336 0.059,0.571 c 0.312,-0.02 0.519,-0.02 0.598,0.035 0.085,0.07 0.125,0.141 0.125,0.23 0.019,0.098 0,0.215 -0.047,0.36 l -0.063,0.152 -0.125,0.543 -2.187,0.215 -0.196,-0.324 c -0.105,-0.274 -0.175,-0.418 -0.183,-0.532 0,-0.148 0.027,-0.277 0.125,-0.351 0.109,-0.078 0.312,-0.141 0.578,-0.152 l -0.07,-0.594 -2.344,0.23 0.058,0.59 c 0.461,-0.039 0.871,0.277 1.243,1.012 l 2.734,5.293 0.613,-0.059 1.66,-5.738 c 0.176,-0.547 0.325,-0.91 0.508,-1.039 0.168,-0.133 0.324,-0.192 0.5,-0.215 z m -7.832,0.778 -2.2,0.305 c -0.183,0.261 -0.457,0.917 -0.886,1.98 -0.188,0.527 -0.356,0.867 -0.442,1.016 -0.105,0.168 -0.215,0.265 -0.312,0.304 -0.098,0.078 -0.352,0.133 -0.75,0.188 l -0.207,-1.68 c -0.039,-0.32 -0.02,-0.547 0.066,-0.68 0.09,-0.164 0.317,-0.265 0.656,-0.316 h 0.137 l -0.086,-0.57 -3.808,0.492 0.078,0.605 0.144,-0.019 c 0.352,-0.059 0.586,0 0.711,0.094 0.121,0.113 0.207,0.336 0.246,0.636 l 0.567,4.184 c 0.019,0.308 0,0.558 -0.098,0.691 -0.09,0.153 -0.301,0.242 -0.633,0.278 l -0.148,0.019 0.066,0.586 2.844,-0.379 0.637,-0.074 c 0.632,-0.078 1.093,-0.16 1.367,-0.258 0.281,-0.078 0.554,-0.207 0.82,-0.402 0.262,-0.184 0.449,-0.453 0.582,-0.738 0.11,-0.297 0.149,-0.579 0.11,-0.922 -0.11,-0.828 -0.653,-1.34 -1.661,-1.528 0.246,-0.207 0.559,-0.754 0.977,-1.644 0.351,-0.719 0.598,-1.172 0.742,-1.301 0.164,-0.152 0.363,-0.258 0.559,-0.258 z m -11.993,1.699 -3.488,0.637 0.117,0.574 c 0.293,-0.059 0.5,-0.059 0.586,-0.027 0.086,0.058 0.149,0.117 0.149,0.211 0.019,0.093 0.007,0.207 -0.032,0.363 l -0.031,0.148 -0.125,0.547 -2.129,0.418 -0.203,-0.344 c -0.148,-0.226 -0.234,-0.39 -0.246,-0.488 -0.039,-0.172 0,-0.281 0.109,-0.379 0.094,-0.094 0.293,-0.148 0.547,-0.187 l -0.097,-0.586 -2.325,0.414 0.106,0.566 c 0.43,-0.097 0.867,0.227 1.308,0.946 l 3.125,5.039 0.606,-0.114 1.242,-5.832 c 0.106,-0.586 0.25,-0.945 0.41,-1.078 0.145,-0.125 0.301,-0.222 0.465,-0.242 z m -7.812,1.414 -6.367,1.379 0.136,0.547 h 0.106 c 0.344,-0.078 0.586,-0.078 0.723,0.039 0.128,0.09 0.207,0.301 0.273,0.625 l 0.91,4.113 c 0.047,0.321 0.047,0.543 -0.031,0.719 -0.098,0.148 -0.301,0.238 -0.652,0.34 l -0.09,0.012 0.117,0.546 3.73,-0.785 -0.125,-0.547 -0.129,0.016 c -0.351,0.059 -0.585,0.059 -0.734,-0.059 -0.125,-0.089 -0.211,-0.293 -0.293,-0.621 l -0.828,-3.984 c -0.066,-0.297 -0.09,-0.492 -0.09,-0.621 0.024,-0.078 0.09,-0.192 0.207,-0.262 0.137,-0.113 0.379,-0.211 0.762,-0.285 0.598,-0.133 1.086,-0.074 1.457,0.172 0.367,0.223 0.66,0.582 0.879,1.109 l 0.566,-0.129 z m -11.692,4.684 c 0.223,-0.758 0.422,-1.188 0.555,-1.383 0.149,-0.168 0.324,-0.301 0.531,-0.336 l -0.156,-0.566 -2.16,0.585 c -0.145,0.262 -0.332,0.942 -0.613,2.063 -0.129,0.547 -0.246,0.895 -0.313,1.07 -0.07,0.168 -0.16,0.285 -0.254,0.36 -0.109,0.078 -0.351,0.175 -0.722,0.242 l -0.45,-1.602 c -0.078,-0.32 -0.097,-0.57 0,-0.722 0.055,-0.153 0.254,-0.278 0.625,-0.352 l 0.098,-0.043 -0.137,-0.566 -3.711,1 0.145,0.566 0.156,-0.055 c 0.332,-0.078 0.559,-0.078 0.703,0.039 0.137,0.094 0.262,0.286 0.325,0.61 l 1.093,4.051 c 0.078,0.339 0.094,0.547 0.028,0.722 -0.098,0.145 -0.293,0.25 -0.633,0.332 l -0.129,0.063 0.148,0.562 2.754,-0.754 0.633,-0.148 c 0.606,-0.172 1.055,-0.285 1.309,-0.398 0.285,-0.137 0.539,-0.305 0.761,-0.512 0.254,-0.238 0.403,-0.508 0.481,-0.809 0.086,-0.332 0.086,-0.64 0.019,-0.929 -0.226,-0.829 -0.851,-1.274 -1.855,-1.317 0.215,-0.226 0.469,-0.812 0.769,-1.773 m -7.195,3.531 c -0.312,-0.969 -0.898,-1.66 -1.777,-2.137 -0.91,-0.476 -1.934,-0.508 -3.106,-0.148 -0.793,0.25 -1.449,0.644 -1.953,1.164 -0.519,0.527 -0.793,1.121 -0.879,1.777 -0.097,0.66 -0.031,1.266 0.145,1.817 0.176,0.621 0.539,1.168 1.066,1.617 0.516,0.48 1.114,0.781 1.797,0.871 0.664,0.09 1.328,0.019 1.992,-0.188 1.2,-0.355 2.039,-1.019 2.489,-1.91 0.461,-0.922 0.539,-1.863 0.226,-2.863 m -8.234,4.379 c -0.156,-0.457 -0.438,-0.774 -0.809,-0.988 -0.39,-0.223 -0.801,-0.282 -1.242,-0.243 -0.449,0.039 -0.996,0.211 -1.66,0.434 l -0.496,0.172 -0.598,-1.582 c -0.098,-0.309 -0.125,-0.531 -0.066,-0.699 0.066,-0.133 0.261,-0.305 0.574,-0.414 l 0.156,-0.059 -0.183,-0.531 -3.633,1.324 0.183,0.539 0.118,-0.035 c 0.343,-0.125 0.585,-0.145 0.734,-0.07 0.137,0.097 0.273,0.281 0.379,0.605 l 1.445,3.965 c 0.117,0.281 0.149,0.508 0.086,0.672 -0.074,0.152 -0.262,0.285 -0.586,0.422 l -0.144,0.074 0.187,0.523 2.734,-0.918 c 0.68,-0.265 1.192,-0.472 1.543,-0.648 0.36,-0.153 0.665,-0.399 0.918,-0.66 0.254,-0.301 0.399,-0.586 0.45,-0.926 0.058,-0.317 0.039,-0.66 -0.09,-0.957 m 68.058,-7.934 2.137,-0.093 -2.508,-1.583 h -0.461 z m 94.864,15.707 c -0.93,0 -1.633,-0.281 -1.633,-0.281 -3.25,-0.867 -33.438,-14.184 -83.399,-14.215 -49.961,0.031 -80.156,13.348 -83.406,14.215 0,0 -0.707,0.281 -1.633,0.281 -0.906,0 -1.746,-0.246 -2.441,-0.738 l -10.234,-8.031 h 0.05 c 2.989,0 6.309,-1.574 6.395,-1.614 26.641,-11.664 57.168,-16.453 91.269,-16.773 34.122,0.32 64.622,5.109 91.243,16.773 0.125,0.04 3.437,1.614 6.425,1.614 h 0.028 l -10.227,8.031 c -0.672,0.492 -1.531,0.738 -2.437,0.738"
         style="fill:#ffffff;fill-opacity:1;fill-rule:nonzero;stroke:none"
         id="path48"
         inkscape:connector-curvature="0" /><path
         d="m 176.996,808.063 c -0.879,-0.567 -2.344,-1.473 -3.738,-2.383 h 7.703 c -1.621,0.851 -3.047,1.738 -3.965,2.383"
         style="fill:#ffffff;fill-opacity:1;fill-rule:nonzero;stroke:none"
         id="path50"
         inkscape:connector-curvature="0" /><path
         d="m 227.152,805.875 c -1.152,0.602 -2.539,1.188 -3.203,1.496 -0.195,0.07 -0.301,0.149 -0.39,0.184 -1.465,0.601 -2.879,1.05 -4.2,1.41 h -15.73 c -1.32,-0.36 -2.734,-0.809 -4.211,-1.41 -0.078,-0.035 -0.203,-0.114 -0.371,-0.184 -0.676,-0.308 -2.059,-0.894 -3.184,-1.496 -0.027,0 -0.215,-0.098 -0.449,-0.191 h 32.18 c -0.246,0.093 -0.422,0.191 -0.442,0.191"
         style="fill:#ffffff;fill-opacity:1;fill-rule:nonzero;stroke:none"
         id="path52"
         inkscape:connector-curvature="0" /><path
         d="m 247.602,807.918 c -0.047,0.031 -0.118,0.07 -0.157,0.105 -0.058,-0.019 -0.078,-0.035 -0.105,-0.074 -0.645,-0.492 -1.762,-1.39 -3.32,-2.265 h 6.746 c -1.192,0.832 -2.395,1.636 -3.164,2.234"
         style="fill:#ffffff;fill-opacity:1;fill-rule:nonzero;stroke:none"
         id="path54"
         inkscape:connector-curvature="0" /><path
         d="m 172.73,743.746 v 16.652 c -1.308,-3.187 -3.261,-10.062 0,-16.652"
         style="fill:#ffffff;fill-opacity:1;fill-rule:nonzero;stroke:none"
         id="path56"
         inkscape:connector-curvature="0" /><path
         d="m 211.352,803.492 h -41.036 c 0,-0.015 -0.007,-0.058 -0.019,-0.066 -0.039,-0.418 0.226,-0.817 0.461,-1.082 0.215,-0.246 0.82,-1.004 1.648,-2.153 h 37.942 l 1.004,3.301"
         style="fill:#ffffff;fill-opacity:1;fill-rule:nonzero;stroke:none"
         id="path58"
         inkscape:connector-curvature="0" /><path
         d="m 209.691,798 h -35.886 c 0.574,-0.961 1.191,-2.062 1.765,-3.281 h 33.118 l 1.003,3.281"
         style="fill:#ffffff;fill-opacity:1;fill-rule:nonzero;stroke:none"
         id="path60"
         inkscape:connector-curvature="0" /><path
         d="m 207.027,789.219 1.004,3.312 h -31.504 c 0.43,-1.047 0.801,-2.14 1.133,-3.312 h 29.367"
         style="fill:#ffffff;fill-opacity:1;fill-rule:nonzero;stroke:none"
         id="path62"
         inkscape:connector-curvature="0" /><path
         d="m 206.363,787.008 h -28.175 c 0.214,-1.055 0.39,-2.145 0.488,-3.301 h 26.679 l 1.008,3.301"
         style="fill:#ffffff;fill-opacity:1;fill-rule:nonzero;stroke:none"
         id="path64"
         inkscape:connector-curvature="0" /><path
         d="m 177.984,772.762 h 14.989 l -4.59,3.301 h -9.727 c -0.144,-0.981 -0.359,-2.098 -0.672,-3.301"
         style="fill:#ffffff;fill-opacity:1;fill-rule:nonzero;stroke:none"
         id="path66"
         inkscape:connector-curvature="0" /><path
         d="m 178.793,781.559 c 0,-0.114 0,-0.211 0,-0.301 0.07,-0.418 0.168,-1.477 0.078,-3.024 h 6.465 l -4.617,3.325 h -1.926"
         style="fill:#ffffff;fill-opacity:1;fill-rule:nonzero;stroke:none"
         id="path68"
         inkscape:connector-curvature="0" /><path
         d="m 227.68,767.281 h 2.168 v -20.664 l -2.168,6.418 z m -16.192,4.407 18.36,-25.915 V 732.91 c 1.281,0.113 2.226,0.133 2.566,0.133 0.258,0 0.5,0.039 0.746,0.039 v 34.199 h 2.195 v -34.086 c 1.172,0.118 2.297,0.27 3.301,0.493 v 33.593 h 2.18 V 734.27 c 1.23,0.386 2.312,0.835 3.301,1.324 v 31.687 h 2.195 V 736.84 c 1.25,0.844 2.305,1.723 3.059,2.488 0.066,0.117 0.156,0.25 0.23,0.367 v 22.559 c -1.043,1.793 -1.863,3.461 -2.547,5.027 h -0.008 c -0.488,1.18 -0.929,2.27 -1.261,3.309 h -18.848 l -4.211,-3.016 -8.219,3.016 -3.007,1.101 30.828,9.911 h -24.09 l -0.637,2.105 h 27.109 c 0.157,1.133 0.364,2.254 0.618,3.301 h -28.743 l -0.644,2.219 h 30.012 c 0.359,1.152 0.761,2.265 1.211,3.304 h -32.246 l -0.649,2.188 h 33.91 c 0.586,1.207 1.199,2.304 1.817,3.281 h -36.731 l -0.664,2.191 h 38.781 c 1.094,1.582 1.953,2.606 2.196,2.887 0.175,0.211 0.234,0.344 0.254,0.414 h -42.227 l -0.137,0.469 v -0.469 -3.301 -2.191 -3.281 -2.188 -3.304 -2.219 -3.301 -11.996 -0.023 0"
         style="fill:#ffffff;fill-opacity:1;fill-rule:nonzero;stroke:none"
         id="path70"
         inkscape:connector-curvature="0" /><path
         d="m 218.891,729.383 c 1.047,0.703 2.168,1.262 3.3,1.719 v 20.484 l -3.3,2.504 v -24.707"
         style="fill:#ffffff;fill-opacity:1;fill-rule:nonzero;stroke:none"
         id="path72"
         inkscape:connector-curvature="0" /><path
         d="m 213.316,722.605 c 0.497,0.809 0.973,1.606 1.239,2.02 l 0.168,0.289 c 0.523,0.953 1.172,1.824 1.894,2.582 v 28.324 l -3.301,2.528 v -35.743"
         style="fill:#ffffff;fill-opacity:1;fill-rule:nonzero;stroke:none"
         id="path74"
         inkscape:connector-curvature="0" /><path
         d="m 207.816,728.195 c 1.036,-0.929 1.965,-1.996 2.668,-3.3 l 0.157,-0.262 c 0.117,-0.199 0.293,-0.457 0.468,-0.758 v 35.555 l -3.293,-2.5 v -28.735"
         style="fill:#ffffff;fill-opacity:1;fill-rule:nonzero;stroke:none"
         id="path76"
         inkscape:connector-curvature="0" /><path
         d="m 202.328,731.348 c 1.125,-0.399 2.246,-0.926 3.313,-1.567 v 25.489 l -3.313,-2.497 v -21.425"
         style="fill:#ffffff;fill-opacity:1;fill-rule:nonzero;stroke:none"
         id="path78"
         inkscape:connector-curvature="0" /><path
         d="m 224.379,731.852 c 1.152,0.347 2.258,0.586 3.301,0.757 v 14.817 l -3.301,2.512 v -18.086"
         style="fill:#ffffff;fill-opacity:1;fill-rule:nonzero;stroke:none"
         id="path80"
         inkscape:connector-curvature="0" /><path
         d="m 196.852,732.727 c 1.015,-0.153 2.128,-0.375 3.289,-0.68 v 19.062 l -3.289,-2.504 v -15.878"
         style="fill:#ffffff;fill-opacity:1;fill-rule:nonzero;stroke:none"
         id="path82"
         inkscape:connector-curvature="0" /><path
         d="m 194.672,767.281 h 2.187 v -9.664 l -2.187,-6.453 z m -16.465,-29.949 v 29.949 h 2.18 v -31.308 c 0.976,-0.532 2.066,-1.02 3.301,-1.453 v 32.761 h 2.175 v -33.426 c 1.028,-0.242 2.129,-0.449 3.301,-0.582 v 34.008 h 2.207 v -34.183 c 0.469,-0.008 0.918,-0.055 1.406,-0.055 0.262,0 0.95,-0.02 1.895,-0.074 v 13.972 l -1.934,-1.457 18.731,26.204 h 0.011 l -0.011,0.019 0.011,0.004 -0.011,-0.004 -6.758,9.895 h -24.07 l 30.808,-9.903 -11.238,-4.125 -4.191,3.016 h -18.672 c -0.34,-1.039 -0.75,-2.152 -1.258,-3.309 -0.352,-0.82 -0.754,-1.648 -1.184,-2.523 v -24.406 c 0.684,-0.832 1.77,-1.926 3.301,-3.02"
         style="fill:#ffffff;fill-opacity:1;fill-rule:nonzero;stroke:none"
         id="path84"
         inkscape:connector-curvature="0" /><path
         d="m 229.984,772.762 h 15.188 c -0.305,1.25 -0.512,2.343 -0.606,3.301 h -9.98 l -4.602,-3.301"
         style="fill:#ffffff;fill-opacity:1;fill-rule:nonzero;stroke:none"
         id="path86"
         inkscape:connector-curvature="0" /><path
         d="m 244.574,781.559 h -2.324 l -4.609,-3.325 h 6.769 c -0.019,1.118 0.067,1.891 0.106,2.305 0,0.336 0.05,0.684 0.058,1.02"
         style="fill:#ffffff;fill-opacity:1;fill-rule:nonzero;stroke:none"
         id="path88"
         inkscape:connector-curvature="0" /><path
         d="m 164.379,871.98 c 4.668,1.719 9.473,-0.117 11.906,-2.531 7.656,-7.515 3.465,-18.082 1.141,-18.652 1.609,4.387 2.414,11.012 -4.492,12.726 -5.391,1.34 -10.254,-2.675 -12.735,-4.929 1.602,4.953 6.992,8.648 14.153,7.078 -1.485,4.141 -6.809,5.871 -12.989,2.453 -1.515,-0.809 -2.59,-1.766 -3.617,-2.66 1.117,3.137 3.684,5.422 6.633,6.515 m -0.418,-24.933 c 3.809,0.961 7.137,2.98 6.152,6.562 -0.273,1.008 -1.152,1.836 -2.59,1.965 -2.128,0.188 -3.554,-1.359 -4.628,-2.945 0.253,3.324 2.335,5.496 5.722,5.121 1.77,-0.211 4.16,-1.855 4.524,-3.738 1.043,-5.27 -3.762,-7.438 -9.18,-6.965 m 25.352,12.57 c 3.085,-4.871 11.101,-11.426 21.16,-14.16 3.429,-0.957 5.09,-11.93 2.324,-17.367 -3.176,-0.113 -3.535,2.152 -4.133,4.527 1.399,-1.105 3.344,-2.601 3.195,-0.07 -1.171,1.016 -8.242,2.851 -6.394,5.945 1.16,1.68 4.961,-5.097 6.055,-2.836 0.64,4.571 -13.575,5.985 -13.157,9.91 0.078,2.118 11.211,-5.414 12.801,-5.246 -0.144,2.422 -16.578,9.106 -21.578,18.067 -0.363,0.648 -0.551,1.203 -0.422,1.281 0.031,0.039 0.117,0 0.149,-0.051 m 27.929,-21.031 c 0.504,-4.129 1.278,-9.645 -0.715,-13.273 -1.074,0.304 -0.476,2.207 -0.476,3.042 0,4.7 -0.129,9.235 -1.281,13.157 -0.555,1.941 -2.137,8.156 -6.29,16.062 1.583,-1.844 7.852,-11.586 8.762,-18.988 m 4.395,14.801 c 2.984,-1.242 -1.504,-7.285 -1.867,-8.418 0.703,0.32 3.117,2.922 4.101,2.133 1.543,-1.286 -3.203,-7.497 -4.433,-7.926 -6.692,8.715 1.867,11.308 2.199,14.211 m 9.265,33.562 c 0.215,-3.457 -1.699,-4.496 -2.058,-4.32 -0.129,0.035 -0.168,0.277 -0.098,0.398 0.957,2.297 0.555,5.938 -1.211,8.055 -1.281,1.531 -3.594,2.363 -3.769,2.59 -0.196,0.281 6.015,-1.211 7.136,-6.723 m -10.886,-52.894 c -1.282,2.265 2.129,5.097 2.91,7.347 4.148,0.637 -1.106,-6.707 -2.91,-7.347 m 0.82,-6.192 c -0.922,0.418 -0.949,2.211 -0.82,3.043 0.339,2.199 2.91,3.227 4.07,4.418 0.285,0.035 0.109,-3.511 -3.25,-7.461 m 40.644,47.68 c 2.383,-0.75 4.219,-2.699 5.567,-5.66 1.133,-2.586 0.652,-5.246 -0.129,-6.762 -0.027,-0.047 -0.066,-0.047 -0.145,-0.027 -0.031,0.027 -0.097,0.086 -0.07,0.148 0.285,1.504 -0.137,4.074 -1.043,6.113 -0.48,1.114 -1.555,3 -3.183,3.458 1.003,-1.434 1.687,-2.602 2.128,-3.614 0.606,-1.375 0.614,-2.168 0.633,-2.816 0.09,-3.012 -1.375,-6.406 -2.773,-7.676 -0.039,0 -0.106,0 -0.156,0.035 -0.059,0.043 -0.059,0.102 -0.047,0.153 1.543,3.652 1.679,6.82 0.39,9.707 -0.117,0.281 -0.273,0.578 -0.449,0.882 -1.133,2.047 -3.086,4.403 -6,4.313 1.418,-0.984 2.59,-2.453 3.371,-4.254 1.68,-3.828 1.36,-8.176 -0.722,-9.926 -0.059,-0.027 -0.125,-0.027 -0.157,0 -0.047,0.051 -0.066,0.09 -0.066,0.125 0.019,0.531 0.066,1.086 0.144,1.594 0.129,1.262 0.129,2.547 -0.183,3.977 -1.582,6.726 -7.129,9.101 -11.113,5.125 0,0 4.324,8.054 14.003,5.105 M 158.793,843.945 c 5.996,-3.324 13.672,-2.871 16.418,-2.433 1.465,0.328 3.035,0.812 4.656,1.941 0.196,0.141 0.403,0.289 0.598,0.442 0.074,0.07 0.176,0.152 0.273,0.203 2.41,2.101 3.867,5.328 3.68,9.531 -0.008,0.094 0.07,0.246 0.187,0.246 0.262,0 0.614,-1.113 0.594,-2.547 -0.027,-1.66 -0.398,-3.566 -1.054,-5.187 0,-0.25 0,-0.528 0.019,-0.813 0.098,-0.605 0.324,-1.23 0.684,-1.644 1.144,-1.27 3.984,-1.68 6.203,-0.797 0.105,0.058 0.262,0.035 0.262,-0.051 0.019,-0.301 -1.473,-1.867 -4.227,-1.867 -0.52,0 -1.106,0.035 -1.68,0.16 1.532,-2.563 5.821,-4.375 10.223,-4.109 0.078,0.019 0.242,-0.079 0.242,-0.172 0,-0.262 -1.09,-0.641 -2.547,-0.641 -2.031,0 -4.453,0.488 -6.277,1.438 2.117,-2.551 5.711,-4.84 11.902,-5.7 0.168,-0.718 -4.668,-0.156 -6.043,0.317 2.852,-11.176 8.836,-9.891 8.934,-10.668 -1.758,-0.582 -2.988,-2.731 -1.738,-5.149 6.367,2.274 11.093,2.453 12.5,2.453 1.433,0 6.328,-0.207 12.824,-2.582 0.703,0.961 0.722,1.954 0.359,2.899 -0.957,2.789 -9.558,4.973 -17.625,2.609 -0.332,-0.133 -0.707,-0.324 -1.055,-0.562 -0.031,-0.02 -0.078,-0.02 -0.097,0.008 -0.02,0.046 0.019,0.125 0.097,0.222 l 0.016,0.008 c 0.121,0.152 1.047,0.68 1.047,0.68 3.535,1.871 10.859,2.57 14.871,0.57 0.031,0 0.031,0.016 0.07,0 3.438,-1.508 6.485,2.695 5.411,4.883 2.539,-0.16 4.453,1.422 4.609,3.953 -0.527,-0.285 -0.938,-0.5 -1.328,-0.652 l 0.019,-0.008 c -0.91,-0.457 -1.785,-0.496 -1.875,-0.383 -0.019,0.035 -0.007,0.094 0,0.137 h -0.019 c 0.019,0 0.039,0.019 0.058,0.019 0.02,0.012 0.02,0.035 0.051,0.035 0.399,0.192 0.731,0.352 1.082,0.543 4.719,2.723 6.985,8.047 6.535,9.692 -0.402,-0.949 -1.886,-1.758 -3.281,-1.781 -0.773,-0.055 -1.211,0.097 -1.23,0.214 -0.032,0.082 0.078,0.149 0.156,0.149 0.574,0.054 1.074,0.32 1.582,0.66 1.656,1.191 3.172,3.383 3.906,5.172 -2.941,2.789 -3.965,6.078 -5.656,10.433 -0.633,1.606 -2.012,3.301 -4.043,3.454 -0.106,0 -0.676,0.023 -0.84,0 -0.262,-0.012 -0.516,-0.075 -0.73,-0.129 -0.051,-0.024 -0.129,0 -0.157,0.047 2.235,1.863 4.727,-0.153 6.172,-0.989 0.235,4.153 1.715,5.207 1.856,5.153 0.058,-0.02 0.066,-0.172 0.027,-0.18 -2.859,-8.504 2.785,-16.563 7.238,-19.164 5.918,-3.192 16.676,-3.664 23.817,2.414 h -0.008 c -1.281,-0.379 -2.656,-0.606 -3.859,-0.625 -1.426,-0.059 -2.547,0.305 -2.559,0.566 0,0.114 0.176,0.211 0.254,0.188 0.969,-0.035 1.855,0.023 2.676,0.129 10.246,2.664 10.664,15.312 8.976,16.125 -0.09,-0.11 -0.121,-0.078 -0.156,0.117 -0.246,-0.777 -0.539,-1.535 -0.871,-2.192 -0.625,-1.308 -1.453,-2.121 -1.688,-2.023 -0.089,0.055 -0.097,0.231 -0.039,0.305 2.246,3.945 2.157,7.019 1.004,10.859 -0.781,2.055 -1.992,4.125 -3.972,5.512 -5.176,3.617 -15.559,4.242 -21.172,-0.141 -1.977,1.965 -4.434,3.442 -7.356,4.477 -0.691,-3.168 -4.179,-7.403 -7.254,-9.574 -0.617,-0.391 -2.355,-1.579 -3.086,-1.579 0,0 -0.695,0.133 -0.078,0.692 5.504,3.418 8.211,7.574 8.282,12.785 v 0.086 c -0.157,2.609 -0.84,7.48 -4.016,10.953 -5,5.461 -18.484,6.191 -24.668,1.039 -1.594,-1.703 -2.664,-3.793 -3.184,-6.359 0.657,1.883 2.09,3.793 4.969,4.699 2.727,0.848 7.961,0.262 8.742,-2.902 -4.621,4.754 -13.035,1.242 -14.207,-6.825 v 0.079 c -0.121,-0.532 -0.422,-0.567 -0.422,-0.567 h -0.019 c -0.215,0.02 -0.528,0.059 -0.418,3.645 0.113,2.246 0.801,5.039 1.816,7.382 -10.351,1.864 -22.785,-3.195 -22.558,-18.613 0.156,-2.148 0.925,-4.176 2.91,-6.469 0.379,-0.441 0.078,-0.625 0.078,-0.625 -0.297,-0.156 -1.582,0.711 -2.356,1.747 -1.035,1.402 -1.933,3.273 -2.382,5.082 -6.493,2.32 -10.52,2.378 -14.2,2.043 -3.808,-0.364 -8.847,-3.743 -10.585,-6.071 -0.801,-1.012 -1.7,-2.469 -2.344,-3.734 -1.278,-2.453 -2.207,-5.621 -1.856,-9.184 0.567,-6.027 3.547,-11.105 7.93,-13.504"
         style="fill:#ffffff;fill-opacity:1;fill-rule:nonzero;stroke:none"
         id="path90"
         inkscape:connector-curvature="0" /><path
         d="m 99.0078,696.293 c -0.0469,0.016 -0.0976,0.039 -0.1836,0.055 -0.7539,0.359 -1.4961,0.851 -2.0234,1.207 -0.6524,-0.996 0.5859,-2.016 1.2109,-2.867 -0.0976,-0.325 -0.4375,-0.473 -0.8398,-0.528 l -0.0274,0.02 c -0.4804,-0.078 -1.0351,0.015 -1.3867,0.168 h -0.0117 c -0.0391,0 -0.0586,0.015 -0.0664,0.015 -1.25,0.586 -1.4649,2.403 -1.4766,3.403 -0.0664,0.867 -0.5468,2.449 -2.1172,3.324 2.4493,1.582 6.1914,-2.363 6.5508,-2.692 0,-0.007 0.0117,-0.007 0.0117,-0.007 h 0.0196 v -0.024 c 0.5273,-0.426 1.2304,-0.812 1.758,-1.304 0.176,-0.172 0.34,-0.325 0.445,-0.504 -0.301,-0.688 -0.9921,-0.629 -1.8632,-0.266 m 29.0232,127.395 c 5.774,-0.45 11.477,-0.52 15.11,-2.567 0.175,-0.086 0.293,-0.183 0.449,-0.273 1.121,-0.789 4.148,-3.157 5.445,-7.629 -4.879,3.058 -6.648,3.765 -10.769,5.226 -3.977,1.391 -8.555,2.039 -10.235,5.243 m -6.972,10.406 c 3.683,-1.379 4.004,3.32 4.894,2.23 1.277,-2.156 -2.226,-5.418 -4.894,-2.23 m -3.164,-0.621 c -1.368,3.058 3.566,7.281 4.777,7.656 2.793,1.027 4.871,-0.691 7.906,-1.141 1.77,-0.269 3.676,0.02 5.121,-0.117 3.297,-0.285 2.422,-2.683 1.864,-3.039 -2.743,-0.777 -4.297,1.32 -6.629,1.66 -1.7,0.188 -3.536,-0.75 -5.227,-0.605 -1.484,0.113 -2.605,1.074 -3.965,0 -0.125,-0.09 -2.051,-1.547 -1.64,-3.375 0.156,-1.231 -1.629,-1.797 -2.207,-1.039 m 50.05,-49.383 c -1.117,-0.258 -1.34,4.734 -7.375,3.555 -3.261,-1.461 -5.703,-0.555 -7.742,0.296 8.582,4.832 15.77,-0.058 15.117,-3.851 m 0.828,-8.61 c 0.774,-0.66 1.329,-2.496 1.563,-4.82 0.019,-0.18 0.031,-0.375 0.051,-0.562 0.019,-0.246 0.039,-0.489 0.058,-0.754 0.02,-0.203 0.02,-0.41 0.02,-0.625 0.027,-0.203 0.027,-0.387 0.027,-0.582 v -0.528 c 0,-0.304 -0.027,-0.625 -0.027,-0.941 -0.02,-0.191 -0.031,-0.383 -0.039,-0.586 -0.02,-0.215 -0.039,-0.414 -0.059,-0.641 -0.019,-0.152 -0.031,-0.328 -0.031,-0.476 -0.027,-0.32 -0.078,-0.641 -0.117,-0.957 -0.039,-0.211 -0.059,-0.399 -0.106,-0.613 -0.019,-0.204 -0.07,-0.411 -0.097,-0.622 -0.02,-0.168 -0.063,-0.335 -0.11,-0.488 -0.027,-0.207 -0.078,-0.398 -0.117,-0.586 -0.086,-0.304 -0.156,-0.578 -0.242,-0.883 -0.059,-0.171 -0.117,-0.347 -0.168,-0.511 -0.051,-0.172 -0.117,-0.34 -0.184,-0.512 -0.05,-0.156 -0.109,-0.32 -0.168,-0.469 -0.105,-0.289 -0.254,-0.547 -0.371,-0.808 -0.047,-0.118 -0.117,-0.227 -0.195,-0.344 -0.078,-0.172 -0.195,-0.336 -0.293,-0.508 -0.059,-0.117 -0.145,-0.207 -0.223,-0.324 -0.16,-0.223 -0.324,-0.453 -0.507,-0.66 -0.051,-0.055 -0.11,-0.117 -0.168,-0.149 -0.157,-0.172 -0.313,-0.324 -0.481,-0.461 -0.055,-0.047 -0.144,-0.105 -0.211,-0.164 -0.226,-0.168 -0.461,-0.304 -0.707,-0.418 -0.027,-0.019 -0.055,-0.019 -0.074,-0.039 -0.234,-0.109 -0.481,-0.183 -0.754,-0.238 -0.059,-0.023 -0.117,-0.039 -0.184,-0.039 -0.304,-0.059 -0.597,-0.098 -0.91,-0.082 -0.125,0.211 -0.156,0.433 -0.156,0.625 0,0.894 0.949,1.699 1.359,2.734 0.399,0.953 0.301,1.586 0.86,2.293 0.945,0.11 1.707,-0.234 1.98,0.637 -1.387,1.133 -1.496,3.418 0.305,5.25 2.574,2.621 -0.02,8.168 0.476,8.851 m 3.586,-12.476 c 5.77,9.98 5.196,16.836 5.02,18.101 0.008,11.028 -6.914,19.372 -7.707,20.278 -0.77,0.883 -0.848,1.695 -0.789,2.207 0.144,1.019 0.918,1.605 1.16,1.699 1.562,1.07 4.922,3.172 6.348,4.055 l 0.644,0.418 c 0.11,0.074 0.363,0.172 0.508,0.172 0.441,0 0.781,-0.289 1.418,-0.778 1.375,-1.078 3.926,-3.043 8.387,-3.043 0.761,0 1.574,0.063 2.414,0.192 2.332,0.336 6.14,2.285 6.179,2.304 1.192,0.641 2.649,1.262 3.332,1.567 l 0.321,0.133 c 6.25,2.601 11.535,2.789 13,2.789 1.453,0 6.746,-0.188 12.945,-2.77 l 0.344,-0.137 c 0.652,-0.273 2.156,-0.941 3.371,-1.582 0.019,-0.019 3.836,-1.968 6.16,-2.304 0.832,-0.129 1.641,-0.192 2.441,-0.192 4.434,0 6.993,1.965 8.348,3.043 0.656,0.489 1.02,0.778 1.438,0.778 0.187,0 0.48,-0.114 0.625,-0.25 -0.047,0.035 0.234,-0.153 0.683,-0.414 1.496,-0.942 4.68,-2.965 6.348,-4.075 0.078,0 0.871,-0.586 0.988,-1.59 0.086,-0.527 -0.012,-1.339 -0.793,-2.21 -0.781,-0.918 -7.695,-9.262 -7.683,-20.137 -0.176,-1.418 -0.754,-8.274 5.039,-18.254 0.261,-0.527 6.472,-12.043 -0.395,-22.109 -0.555,-0.918 -5.945,-9.266 -20.027,-9.266 -1.289,0 -12.606,-0.227 -16.446,-7.418 -0.027,0 -0.097,-0.133 -0.222,-0.324 -0.473,-0.793 -1.895,-3.074 -2.52,-4.344 -0.129,-0.227 -0.383,-0.375 -0.644,-0.375 -0.274,0 -0.528,0.141 -0.645,0.375 -0.617,1.27 -2.051,3.551 -2.5,4.344 -0.16,0.191 -0.226,0.324 -0.226,0.324 -3.868,7.191 -15.164,7.418 -16.446,7.418 -14.113,0 -19.5,8.348 -20.066,9.293 -7.023,10.305 -0.441,21.965 -0.352,22.082 m 81.954,7.324 c 0.007,0.02 0.015,0.02 0.039,0.035 0.644,0.418 1.386,0.723 2.183,0.891 0.395,0.082 0.805,0.09 1.223,0.09 h 0.07 c 0.438,0 0.867,-0.059 1.289,-0.164 0.254,-0.02 1.121,-1.59 1.492,-3.172 h 0.012 c 0.086,-0.383 0.77,-2.778 1.609,-3.586 0.801,-0.797 0.469,-2.383 -1.503,-2.137 h -0.106 c -2.101,0.352 -4.473,3.629 -3.5,6.891 -0.562,0.117 -1.051,0.117 -1.5,0.058 h -0.058 c -0.254,-0.039 -0.508,-0.117 -0.735,-0.211 -0.078,-0.015 -0.144,-0.031 -0.215,-0.07 -0.125,-0.058 -0.261,-0.156 -0.39,-0.234 -0.118,-0.055 -0.227,-0.11 -0.332,-0.188 -0.496,-0.426 -0.692,-1.187 -1.407,-1.226 0.051,1.25 0.774,2.304 1.829,3.023 m 8.542,-10.121 c 0.071,-0.051 0.11,-0.113 0.149,-0.187 0.027,-0.079 0.039,-0.137 0.066,-0.207 0.02,-0.094 0.039,-0.188 0.059,-0.305 0.019,-0.098 0.039,-0.184 0.039,-0.281 0.012,-0.153 0.02,-0.301 0.02,-0.473 v -0.238 c 0,-0.68 -0.04,-1.512 -0.02,-2.461 0.012,-0.149 0,-0.282 0.012,-0.434 0.008,0 0.008,-0.019 0.008,-0.019 0.019,-0.567 0.058,-1.145 0.136,-1.797 0.188,-1.336 -0.117,-3.188 -0.879,-4.395 -0.105,-0.164 -0.215,-0.316 -0.351,-0.469 -0.117,-0.136 -0.242,-0.25 -0.379,-0.359 -0.02,0 -0.031,-0.019 -0.039,-0.039 -0.117,-0.07 -0.254,-0.148 -0.383,-0.211 -0.027,-0.012 -0.059,-0.035 -0.09,-0.035 -0.113,-0.059 -0.262,-0.086 -0.367,-0.113 -0.051,0 -0.109,-0.016 -0.148,-0.016 -0.118,-0.016 -0.254,0 -0.391,0.016 h -0.176 c -0.125,0.039 -0.254,0.074 -0.398,0.136 -0.071,0.012 -0.149,0.035 -0.215,0.075 -0.149,0.054 -0.285,0.148 -0.422,0.218 -0.066,0.067 -0.164,0.094 -0.242,0.153 -0.176,0.117 -0.332,0.269 -0.508,0.402 -0.07,0.078 -0.137,0.117 -0.207,0.172 0,0 -0.938,1.586 0.48,1.769 0.215,-0.222 0.411,-0.394 0.575,-0.531 0.039,-0.035 0.097,-0.074 0.136,-0.09 0.129,-0.097 0.235,-0.148 0.352,-0.187 0.031,-0.02 0.078,-0.035 0.098,-0.035 0.156,-0.039 0.265,-0.039 0.371,0 0.019,0 0.031,0.015 0.039,0.035 0.09,0.039 0.175,0.09 0.234,0.187 0.039,0.039 0.051,0.075 0.078,0.114 0.051,0.074 0.117,0.168 0.149,0.285 0.019,0.058 0.039,0.09 0.047,0.144 0.07,0.153 0.128,0.348 0.156,0.532 0.011,0.074 0.027,0.152 0.027,0.226 0.024,0.133 0.051,0.297 0.07,0.453 0.012,0.117 0.012,0.227 0.039,0.344 0,0.129 0.012,0.262 0.032,0.41 0.176,2.473 0.027,5.891 0.761,7.039 0.047,0.121 0.125,0.195 0.204,0.25 0.031,0.02 0.058,0.035 0.078,0.059 0.066,0.039 0.175,0.094 0.273,0.094 h 0.012 0.027 c 0.156,0 0.266,-0.04 0.379,-0.118 0.039,-0.015 0.082,-0.074 0.109,-0.113 m 18.907,-13.363 c 3.484,-1.34 8.203,-0.606 10.597,1.308 0.118,0.086 0.411,0.129 0.547,0 0.379,-0.363 0.028,-2.906 -4.406,-3.812 -7.371,-0.555 -12.195,6.164 -11.797,6.012 0.391,-0.11 2.531,-2.528 5.059,-3.508 m -6.543,65.429 c -1.004,-1.796 -2.489,-3.875 -4.754,-4.433 -4.16,-1.008 -8.344,2.41 -8.457,2.902 -0.215,0.488 3.418,-1.695 6.902,-1.457 2.617,0.195 4.66,2.012 6.145,3.211 0.164,0.227 0.351,0 0.164,-0.223 m -15.828,20.309 c -0.137,-0.152 -0.43,-0.152 -0.547,-0.074 -2.453,1.269 -7.141,1.172 -10.5,-0.598 -2.449,-1.281 -4.414,-3.758 -4.813,-3.949 -0.41,-0.188 4.032,6.551 11.336,7.266 4.387,-0.039 4.863,-2.27 4.524,-2.645 m 53.347,-21.937 c 0.891,0.097 2.051,0.324 2.891,0.558 0.898,0.297 1.574,1.188 2.531,1.188 0.352,-0.383 -0.383,-0.801 -0.707,-1.059 -0.957,-0.812 -3.277,-2.047 -4.851,-2.398 -3.028,-0.758 -5.86,0.316 -7.129,2.171 2.246,0.708 4.211,-0.835 7.265,-0.46 m 8.41,12.445 c 0.625,2.625 4.286,5.828 4.278,7.289 -0.02,1.586 -1.778,3.453 -1.965,5.621 -0.301,3.402 2.266,6.703 5.644,6.004 2.168,-0.449 3.625,-2.32 4.954,-3.926 0.535,-0.621 1.289,-1.172 1.738,-1.719 3.906,-4.812 6.988,-13.402 8.887,-20.293 5.586,-20.296 8.191,-52.23 1.543,-87.515 -0.606,-3.035 -2.071,-10.75 -2.364,-10.098 6.465,58.258 2.91,72.676 1.817,72.469 -0.91,-0.34 -1.953,-7.192 -5.188,-5.102 -3.152,2.024 7.238,14.879 3.086,21.981 -0.945,1.133 -1.805,-1.613 -3.476,-1.121 -4.297,1.418 2.343,12.496 1.101,13.672 -0.926,0.836 -4.168,1.492 -4.265,5.625 -0.028,1.847 1.23,3.367 -0.282,4.929 -1.191,1.153 -0.988,-1.105 -2.226,-0.527 -2.004,2.129 -0.168,4.547 -1.153,6.133 -0.558,0.418 -1.945,-1.305 -3.039,-0.438 -1.191,0.969 0.657,2.832 -0.8,3.512 -1.883,-0.262 -4.696,-2.344 -4.129,-5.434 0.293,-1.605 2.195,-2.679 2.058,-4.496 -0.078,-1.566 -2.031,-3.437 -2.383,-4.25 -2.781,-6.281 1.887,-7.586 1.243,-9.793 -0.293,-1.054 -2.286,-1.679 -3.567,-1.172 -1.699,0.696 -2.082,6.329 -1.512,8.649 M 285.27,714.902 h -0.024 c -0.066,-0.148 -0.113,-0.32 -0.144,-0.468 -1.649,0.015 -5.184,2.472 -5.235,2.492 -0.476,0.324 -2.031,1.187 -3.347,0.73 h -0.012 l -0.02,-0.008 c -1.406,-0.636 -2.05,-2.085 -2.84,-2.804 -0.117,0.285 -0.187,0.566 -0.238,0.812 -0.015,0.051 -0.015,0.078 -0.027,0.098 -0.039,0.25 -0.059,0.473 -0.059,0.68 v 0.261 c 0.012,0.192 0.02,0.375 0.059,0.555 0.019,0.07 0.051,0.164 0.09,0.258 0.078,0.222 0.183,0.453 0.332,0.644 0.066,0.106 0.144,0.231 0.222,0.34 0.078,0.074 0.168,0.133 0.246,0.207 0.118,0.11 0.262,0.235 0.43,0.309 0.059,0.051 0.098,0.078 0.164,0.105 0.762,0.395 1.719,0.571 2.707,0.492 l -0.011,0.02 c 1.328,-0.094 2.683,-0.566 3.703,-1.441 1.199,-1.059 3.562,-1.352 5.027,-1.43 -0.02,-0.016 -0.73,-1.02 -1.023,-1.852 m -132.618,7.61 c -0.019,-0.133 -0.07,-0.246 -0.148,-0.34 -0.027,-0.063 -0.09,-0.09 -0.145,-0.133 -0.058,-0.055 -0.109,-0.113 -0.187,-0.152 -0.313,-0.153 -0.731,-0.199 -1.25,-0.227 -0.828,0 -1.738,0.133 -2.332,0.25 -0.098,-0.574 0.203,-0.945 0.652,-1.25 0,-0.019 -0.008,-0.019 -0.008,-0.019 0.02,-0.012 0.047,-0.012 0.047,-0.012 0.207,-0.133 0.41,-0.25 0.625,-0.348 0.352,-0.164 0.703,-0.34 0.996,-0.488 0.071,-0.785 -1.328,-1.285 -1.98,-1.285 -1.387,0 -2.324,1.543 -2.793,2.476 -0.109,0.09 -0.246,0.192 -0.402,0.278 -0.106,0.074 -0.204,0.152 -0.313,0.215 -1.211,0.679 -3.035,0.902 -4.812,0.996 0.32,3.195 9.082,1.004 9.304,0.949 0.899,-0.25 2.043,-0.25 2.785,-0.727 0,-0.07 -0.031,-0.101 -0.039,-0.183 m 40.352,-47.422 c -0.137,0.062 -4.191,1.191 -10.07,-2.379 0,0 -4.707,-3.281 -5.84,-3.281 0,0 1.113,5.324 1.972,11.304 -0.906,0.102 -1.785,0.211 -2.675,0.329 -0.703,-5.618 -1.961,-12.028 -4.219,-12.364 l -3.211,-0.683 c -0.137,0.41 -0.352,0.789 -0.606,1.132 -0.519,0.762 -1.496,1.567 -3.41,1.375 0,0 -0.125,-0.035 -0.332,-0.097 -1.453,-0.391 -2.547,-1.621 -2.703,-3.129 -0.676,-0.156 -6.152,-1.039 -8.984,1.129 0,0 5.293,1.84 5.918,3.722 0,0 1.57,3.075 -3.633,5.969 0,0 -3.918,2.281 -4.981,-0.176 0,0 -0.382,-1.093 1.368,-2.601 0,0 1.894,-2.004 -1.692,-1.688 0,0 -2.453,0.25 -3.269,1.211 0,0 0.644,6.727 2.207,11.313 -1.391,0.355 -2.746,0.715 -4.133,1.097 -0.535,-1.496 -1.063,-3.078 -1.504,-4.781 0,0 -0.215,-3.926 -1.66,-4.926 0,0 -5.098,4.172 -2.918,11.497 -1.594,0.484 -3.184,1.019 -4.746,1.542 -0.18,-3.488 0.683,-9.171 5.262,-17.269 0,0 -4.149,-5.531 -8.477,-2.641 0,0 -6.094,3.93 -2.207,7.422 0,0 2.648,2.207 3.781,-0.551 -1.359,-0.074 -2.441,-1.191 -2.441,-2.562 0,-1.402 1.14,-2.551 2.547,-2.551 1.355,0 2.461,1.074 2.539,2.41 0.129,1.035 0.176,3.664 -2.09,5.594 0,0 -2.195,2.316 -5.781,1.563 0,0 3.371,4.457 3.703,8.171 0,0 0.027,0.625 0.273,1.442 -0.996,0.355 -1.965,0.73 -2.953,1.113 -0.223,-3.66 -1.324,-10.402 -6.336,-8.551 0,0 3.235,5.395 5.324,8.946 -2.031,0.793 -4.043,1.597 -6.007,2.472 -0.137,0.059 -0.313,0.137 -0.536,0.235 0.301,-1.535 0.789,-5.328 -1.269,-7.575 0,0 -2.52,-2.343 -6.867,1.051 0,0 5.773,4.856 7.558,6.746 -1.218,0.469 -3.086,1.035 -4.746,1.035 h -1.601 c -0.086,-0.074 -0.223,-0.148 -0.321,-0.222 0,0 -3.781,-2.781 -6.347,-3.879 0,0 -0.762,-0.488 -1.516,0.324 0,0 -4.727,5.496 -1.062,11.328 0,0 2.136,5.196 6.726,4.063 0,0 1.309,0.035 2.07,-1.797 0,0 -4.382,-0.172 -3.894,-3.246 0,0 0.058,-3.235 4.023,-3.024 0,0 5.516,0.551 4.215,7.231 0,0 -0.933,4.019 -4.09,4.019 0,0 1.77,2.211 0.489,3.078 0,0 -1.317,1.262 -4.278,-0.808 0,0 -0.742,-1.461 -4.328,-0.684 0,0 -2.391,0.981 -3.711,-0.851 0,0 -0.613,-0.242 -0.613,-2.832 0,0 0.254,-1 -1.3361,-3.68 0,0 -0.8984,-1.797 -1.0546,-4.723 -1.1055,0.856 -2.3555,1.496 -3.6719,1.711 -1.8086,1.879 -1.9649,10.696 -3.8477,15 -0.4219,1 0.8594,5.473 0.8867,10.254 13.3316,2.813 18.3396,12.977 19.7066,17.5 2.059,7.34 -0.703,14.817 -1.015,16.809 -0.027,0.25 0.207,0.25 0.332,0 0.586,-1.106 1.066,-2.258 1.457,-3.449 6.406,-0.485 10.809,0.507 13.906,1.664 0.156,0.078 0.32,0.125 0.477,0.183 0.234,0.094 0.441,0.192 0.652,0.27 0.551,0.246 1.066,0.484 1.594,0.734 0.187,0.102 0.363,0.184 0.527,0.281 9.297,4.778 13.516,12.481 16.074,16.856 -1.32,0.293 -5.312,1.555 -6.64,3.59 3.418,-0.285 6.015,-1.719 9.433,-1.735 5.032,-0.043 8.411,2.774 13.957,2.11 0,-0.301 0.743,-2.637 4.325,-4.094 0.097,-3.172 0.304,-5.871 1.289,-8.375 0.265,-0.762 0.461,-1.039 0.461,-1.039 0,0 -4.172,-3.211 -3.067,-5.934 0.274,-0.718 0.586,-1.453 0.828,-2.078 -0.195,0 -0.41,0.02 -0.574,0.094 -0.625,0.285 -1.367,-0.809 -2.297,-2.27 -0.476,-0.742 -2.676,-5.296 -1.015,-5.691 0.351,-0.07 0.683,-0.094 1.035,-0.113 -0.879,-4.7 -0.809,-10.856 3.066,-16.555 l 0.051,-0.078 c 0.234,-0.399 6.25,-10.234 22.422,-10.234 h 0.234 c 1.602,0 15.821,-0.282 20.887,-9.743 0.293,-0.539 1.426,-2.129 2.648,-2.129 1.25,0 2.371,1.59 2.664,2.122 5.071,9.468 19.278,9.75 20.899,9.75 h 0.234 c 16.172,0 22.188,9.835 22.434,10.234 l 0.019,0.078 c 1.981,2.883 2.95,5.871 3.328,8.758 3.176,1.742 3.008,8.89 3.04,10.16 0.878,-1.27 2.761,-4.84 6.707,-5.762 -0.633,-3.379 -0.43,-8.945 3.195,-9.683 1.094,-0.114 2.039,1.527 1.758,2.793 3.133,-8.93 0.515,-14.438 2.859,-15.102 3.027,-0.039 3.164,5.281 3.43,5.434 0.254,-0.473 1.23,-2.071 1.308,-4.493 0.047,-2.773 -0.371,-5.527 0.887,-6 4.16,-0.703 2.18,11.52 5.422,10.293 -0.801,-5.425 -0.02,-8.457 2.234,-9.347 -0.086,-2.457 -0.34,-4.867 -1.386,-4.867 -5.996,-1.348 -11.473,3.386 -16.7,1.976 -0.363,0.227 -0.546,0.356 -0.546,0.356 -9.629,5.172 -15.704,1.226 -16.309,1.757 -2.715,2.497 -3.75,-1.242 -4.52,-0.804 -5.039,2.847 -7.812,-1.992 -9.121,-2.215 -1.183,-0.176 -3.351,2.527 -5.656,-3.156 -1.055,-2.504 -6.66,-3.582 -7.109,-3.715 -2.246,-0.27 -2.774,1.285 -2.774,1.285 -0.215,0.637 -0.437,1.184 -0.664,1.641 -0.215,0.433 -0.469,0.777 -0.832,1.117 -0.738,0.699 -1.551,0.832 -2.262,0.758 -1.66,-0.125 -2.968,-1.496 -2.968,-3.18 0,-0.719 0.222,-1.375 0.644,-1.922 0.172,-0.152 0.684,0.563 1.414,0.531 1.231,-0.078 2.239,-1.008 2.239,-2.246 v -0.047 c 0.156,-2.562 -3.75,-5.129 -3.75,-5.129 -2.266,-2.015 -5.079,0.789 -5.079,0.789 -1.64,1.27 -2.695,1.403 -2.695,1.403 -1.652,-0.059 -2.402,-1.813 -2.402,-1.813 0,0 -0.754,1.754 -2.403,1.813 0,0 -1.074,-0.133 -2.687,-1.403 0,0 -2.844,-2.804 -5.098,-0.789 0,0 -3.906,2.567 -3.742,5.129 v 0.047 c 0,1.238 0.996,2.168 2.219,2.246 0.762,0.032 1.269,-0.683 1.426,-0.531 0.421,0.547 0.656,1.203 0.656,1.922 0,1.684 -1.32,3.055 -2.988,3.18 -0.696,0.074 -1.524,-0.059 -2.258,-0.758 -0.34,-0.34 -0.625,-0.684 -0.821,-1.117 -0.242,-0.457 -0.468,-1.004 -0.671,-1.641 0,0 -0.52,-1.555 -2.774,-1.285 -0.449,0.133 -6.055,1.211 -7.101,3.715 -2.332,5.683 -4.493,2.98 -5.653,3.156 -1.32,0.223 -4.082,5.062 -9.121,2.215 -0.793,-0.438 -1.816,3.301 -4.531,0.804 -0.527,-0.453 -5.285,2.512 -12.969,-0.281 -0.461,0.914 -2.89,1.371 -3.574,1.645 -1.582,0.433 -2.969,1.672 -3.957,2.168 -2.149,1.093 -5.676,0.402 -8.145,0.695 -0.957,0.141 -2.324,0.664 -3.144,1.152 -3.192,1.965 -6.824,4.383 -8.848,7.235 -0.34,0.465 -1.14,1.562 -1.297,1.738 -0.957,1.215 -1.476,2.148 -2.207,4.207 -1.117,3.926 0.594,8.113 1.18,12.098 0.254,1.894 0.312,2.66 0.391,3.793 -3.055,-0.789 -7.098,-0.864 -12.051,0.519 1.25,-4.215 1.484,-8.672 1.008,-12.148 1.921,-1.446 3.062,-3.824 3.191,-4.957 0.227,-2.008 -0.723,-4.102 0.469,-5.707 1.73,-2.395 5.558,-4.586 7.91,-6.192 0.793,-0.515 11.633,-8.886 13.047,-9.195 1.535,-0.297 2.488,0.836 3.859,0.605 0.449,-0.113 0.801,-0.449 1.16,-0.73 0,0 0.91,-1.004 2.266,-1.871 -3.281,-2.043 -7.402,-4.531 -10.43,-6.024 0,0 -4.883,-2.664 -2.566,-2.722 0,0 3.418,0.117 3.711,-0.621 0,0 -1.457,-0.567 -3.637,-1.524 5.102,-1.836 10.344,-3.476 15.656,-4.929 3.41,3.339 7.766,6.949 11.993,8.535 0,0 6.113,-0.25 8.105,4.207 0.637,1.371 3.203,-2.567 8.566,0.394 0.489,0.266 1.297,-1.172 2.832,-1.586 0.497,-0.132 -2.199,-0.527 -1.652,-2.886 0.098,-0.305 -4.375,-0.032 -5.828,-2.508 -0.43,-0.719 -9.914,-0.52 -18.293,-7.633 1.574,-0.375 3.164,-0.758 4.766,-1.094 2.793,2.098 6.152,3.532 10.05,3.309 0,0 5.164,-0.32 7.325,-6.457 3.242,-0.453 6.504,-0.856 9.785,-1.188 -0.039,0.016 -0.071,0.035 -0.098,0.035 0.899,0.391 5.41,2.61 3.387,5.29 0,0 -1.082,1.355 -2.957,-0.434 0,0 -1.203,-1.078 -1.711,0.617 0,0 -0.125,0.949 -0.625,1.758 0,0 -0.899,1.32 0.89,0.699 0,0 1.629,-0.492 3.153,-0.289 1.621,0.098 2.89,1.418 2.89,3.067 0,1.695 -1.191,3.296 -2.902,3.296 -0.055,0 -0.348,-0.074 -0.348,-0.238 0.243,-0.207 0.418,-0.516 0.418,-0.871 0,-0.617 -0.527,-1.27 -1.121,-1.117 -1.847,0.508 -1.32,4.109 1.219,4.234 0,0 2.219,-0.125 4.102,-2.363 0,0 4.297,-6.441 8.254,-7.797 0.269,-0.09 -0.684,-2.32 1.804,-3.094 0.305,-0.07 -0.047,-2.008 2.531,-1.816 0.055,0 0.575,-0.867 1.18,-2.227 2.254,-0.058 4.524,-0.093 6.809,-0.093 2.273,0 4.558,0.035 6.804,0.093 0.618,1.36 1.106,2.227 1.172,2.227 2.59,-0.192 2.246,1.746 2.52,1.816 2.531,0.774 1.531,3.004 1.836,3.094 3.945,1.356 8.242,7.797 8.242,7.797 1.867,2.238 4.082,2.363 4.082,2.363 2.559,-0.125 3.098,-3.726 1.23,-4.234 -0.593,-0.153 -1.113,0.5 -1.113,1.117 0,0.355 0.188,0.664 0.442,0.871 -0.032,0.164 -0.332,0.238 -0.395,0.238 -1.676,0 -2.859,-1.601 -2.859,-3.296 0,-1.649 1.261,-2.969 2.851,-3.067 1.524,-0.203 3.164,0.289 3.164,0.289 1.789,0.621 0.891,-0.699 0.891,-0.699 -0.508,-0.809 -0.625,-1.758 -0.625,-1.758 -0.488,-1.695 -1.699,-0.617 -1.699,-0.617 -1.895,1.789 -2.961,0.434 -2.961,0.434 -2.039,-2.68 2.48,-4.899 3.371,-5.29 -0.012,0 -0.051,-0.019 -0.078,-0.035 3.301,0.332 6.562,0.735 9.773,1.188 2.16,6.137 7.317,6.457 7.317,6.457 3.906,0.223 7.273,-1.211 10.058,-3.309 1.61,0.336 3.203,0.719 4.793,1.094 -8.406,7.113 -17.898,6.914 -18.32,7.633 -1.434,2.476 -5.93,2.203 -5.828,2.508 0.535,2.359 -2.141,2.754 -1.66,2.886 1.531,0.414 2.351,1.852 2.851,1.586 5.352,-2.961 7.938,0.977 8.543,-0.394 2,-4.457 8.117,-4.207 8.117,-4.207 4.227,-1.586 8.582,-5.196 11.981,-8.535 4.883,1.324 9.668,2.832 14.355,4.472 -0.008,0.059 -0.039,0.133 -0.058,0.176 -0.067,0.258 -0.176,0.508 -0.282,0.789 -0.039,0.094 -0.07,0.168 -0.097,0.246 l -0.02,0.024 c -0.187,0.41 -0.441,0.824 -0.695,1.242 h 0.012 c -1.223,2.058 -3.02,4.09 -3.606,4.769 -0.008,0 -0.008,0 -0.027,0.024 -0.129,0.125 -0.188,0.195 -0.18,0.207 -0.027,0 3.508,5.383 5.715,1.715 0.207,-0.465 -0.195,-1.75 -2.402,-1.75 0,-0.02 2.57,-4.032 3.222,-6.817 0.02,0 0.039,0.02 0.071,0.02 1.093,0.414 1.851,0.664 2.253,0.789 0.208,0.058 0.43,0.074 0.625,0.133 -1.386,2.718 -3.437,4.246 -2.859,5.156 0.535,0.223 2.469,-0.742 3.563,0.887 0.254,0.398 0.539,2.355 0.793,4.449 1.386,-0.75 2.996,-0.785 3.503,-0.824 3.633,0.093 4.993,5.57 4.004,7.363 0.528,0.336 2.668,2.094 2.864,1.621 1.132,-2.586 7.039,-5.355 6.523,0.473 0.945,-2.832 1.649,-6.063 4.93,-5.797 2.402,0.566 0.851,4.64 1.711,4.64 0.691,-1.187 1.687,-5.851 5.222,-4.718 1.075,0.418 1.926,1.211 1.954,2.777 0.183,4.48 -12.676,27.977 -13.829,38.148 -0.203,0.071 -0.39,0.137 -0.605,0.231 -1.238,0.641 -1.367,2.66 -1.16,4.129 0.008,0.121 0.047,0.195 0.066,0.285 -1.543,0.285 -3.984,1.648 -4.363,5.926 0,3.851 1.687,5.761 2.051,5.761 0.144,0 0.183,-0.25 0.125,-0.375 -0.985,-3.023 -1.68,-6.652 0.527,-8.671 0.441,-0.379 1.27,-0.766 2.246,-0.86 0.664,1.293 1.574,1.942 1.758,1.918 0.137,-0.015 0.109,-0.199 0.059,-0.297 -1.211,-2.082 -1.161,-4.945 -0.059,-6.265 0.539,-0.586 1.562,-1 2.344,-1.035 3.574,1.269 5.398,8.128 6.211,10.242 2.375,-0.504 -3.868,-14.297 0.937,-17.254 1.984,0.172 3.117,2.453 3.828,4.457 1.555,-4.063 -5.066,-12.606 -0.293,-14.539 2.922,-0.735 3.965,6.742 4.035,5.793 0.84,-11.434 -5.156,-16.946 -1.308,-18.723 3.211,-1.512 4.336,7.797 4.336,6.629 -0.098,-12.176 -6.231,-15.578 -3.614,-17.707 3.008,-1.207 5.165,6.156 5.118,4.418 -0.266,-10.914 -5.715,-13.801 -3.293,-17.258 2.793,-3.961 8.039,7.121 8.312,5.039 0.301,-2.543 -5.949,-15.176 -2.355,-16.062 3.058,-0.735 4.082,3.586 4.355,4.496 9.387,31.386 9.719,61.933 9.102,72.226 -0.946,16.039 -2.227,30.407 -6.114,43.621 -2.382,8.122 -6.972,24.731 -17.695,27.008 -5.058,1.059 -8.887,-3.617 -8.789,-7.847 0.078,-3.622 2.598,-5.379 1.504,-8.993 -1.367,-2.336 -2.703,-4.898 -3.359,-7.515 -0.653,-2.602 1.66,-3.653 0.929,-6.43 -3.254,0.473 -4.972,-2.226 -9.777,-1.238 -4.402,-1.824 -8.84,-1.028 -8.867,-0.891 -0.02,0.055 0.117,0.125 0.215,0.106 4.804,0.132 9.16,1.726 10.078,3.836 0.969,3.226 0.383,8.046 -2.031,9.836 -2.735,-0.586 -4.129,-2.95 -13.719,-2.375 -7.891,0.468 -9.856,-1.004 -10.957,-5.797 -0.469,0.777 -0.508,1.394 -0.41,2.265 0.3,2.621 2.929,4.242 6.113,4.586 0.672,1.145 0.781,2.016 0.781,3.285 -1.457,0.106 -2.141,0.157 -3.937,-0.136 -3.758,-0.582 -8.954,-2.711 -10.254,-6.469 -0.164,-0.457 -0.274,-1.227 -0.274,-1.969 0.039,-0.601 0.129,-1.16 0.274,-1.676 0.148,-0.394 0.304,-0.797 0.41,-1.211 1.203,-2.586 4.172,-4.058 10.519,-4.343 0.094,0.023 0.254,-0.086 0.235,-0.203 -0.039,-0.266 -1.281,-0.512 -2.891,-0.34 0,0 -5.89,-0.039 -8.508,3.054 -0.195,-0.226 -0.371,-0.429 -0.476,-0.546 -1.614,-1.645 -4.516,-3.211 -7.11,-3.356 -2.871,-0.129 -6.054,1.711 -7.187,3.246 -3.809,5.106 1.133,13.985 1.055,17.27 -0.227,8.82 -12.207,4.851 -16.606,2.543 -5.242,-2.754 -9.41,-7.192 -12.926,-11.528 -1.867,-2.324 -3.965,-5.195 -5.058,-7.668 1.531,-0.73 6.101,-2.707 9.566,-2.777 l 0.188,-0.016 c 0.195,-0.011 0.617,-0.058 1.211,-0.058 1.816,0 5.226,0.304 7.765,2.418 0.223,0.207 1.258,1.039 2.754,1.039 1.121,0 2.137,-0.438 3.027,-1.262 0.614,-0.508 8.172,-6.551 10.653,-8.234 0.344,-0.223 1.066,-0.883 1.211,-1.918 0.097,-0.606 -0.028,-1.59 -0.946,-2.653 -0.57,-0.64 -4.355,-5.093 -6.847,-11.152 -0.371,-0.883 -0.703,-1.789 -0.985,-2.738 -0.929,-3.227 -1.574,-8.36 2.926,-9.942 0,0 4.953,-1.289 4.574,6.922 0,0 0.801,-5.265 4.668,-5.09 1.641,0.071 3.106,1.692 2.821,5.243 0.019,0 0.019,-0.02 0.019,-0.02 -0.359,3.418 -0.293,7.285 0.352,11.566 0.027,0.172 0.058,0.305 0.09,0.461 0.046,-0.082 0.164,-0.433 0.371,-2.113 0.23,-2.137 -1.262,-21.183 14.363,-34.101 0,0 -6.59,3.238 -11.152,11.332 -2.645,-1.567 -6.258,-4.926 -4.598,-12.082 0.859,-2.43 2.527,-4.735 3.855,-5.457 0.071,-0.051 0.176,-0.208 0.176,-0.333 0.02,-0.328 -0.847,-0.953 -2.265,0.485 h -0.008 c -0.215,0.223 -0.43,0.473 -0.656,0.773 -0.528,0.813 -0.946,1.602 -1.258,2.379 -1.809,1.543 -3.457,3.254 -5.09,4.93 l -0.02,0.039 c -1.242,2.547 -0.554,10.168 -7.996,10.191 0,0 -0.285,0.024 -0.695,0 h -0.02 c -0.351,-0.023 -0.789,-0.058 -1.269,-0.175 -0.086,-0.012 -0.184,-0.012 -0.262,-0.032 -1.957,6.664 -1.426,10.91 -1.32,11.551 1.523,9.625 8.332,17.633 9.113,18.527 0.281,0.297 0.606,0.786 0.543,1.258 -0.066,0.383 -0.348,0.621 -0.406,0.66 l -0.039,0.036 c -2.571,1.718 -9.981,7.644 -10.821,8.328 l -0.078,0.074 c -0.547,0.516 -1.132,0.797 -1.808,0.797 -0.93,0 -1.602,-0.606 -1.602,-0.606 -3.008,-2.492 -6.855,-2.879 -8.914,-2.879 -0.695,0 -1.203,0.063 -1.437,0.102 h -0.118 c -4.285,0.109 -9.675,2.68 -10.722,3.211 -7.391,3.078 -13.067,3.207 -14.149,3.207 -1.047,0 -6.742,-0.129 -14.121,-3.207 -1.054,-0.531 -6.445,-3.102 -10.746,-3.211 h -0.066 c -0.196,-0.023 -0.723,-0.102 -1.485,-0.102 -2.031,0 -5.906,0.387 -8.867,2.84 l -0.039,0.059 c 0,0 -0.672,0.586 -1.609,0.586 -0.645,0 -1.25,-0.281 -1.797,-0.797 l -0.059,-0.074 c -0.84,-0.684 -8.273,-6.61 -10.824,-8.328 l -0.047,-0.036 c -0.058,-0.039 -0.359,-0.277 -0.398,-0.66 -0.059,-0.472 0.254,-0.961 0.508,-1.258 0.8,-0.894 7.617,-8.902 9.128,-18.527 0.059,-0.359 0.247,-1.812 0.079,-4.168 -0.633,2.035 -1.219,3.809 -1.7,5.11 -0.203,1.062 -0.566,1.984 -1.062,2.804 l -0.02,0.012 c -1.035,1.644 -2.578,2.832 -4.23,3.773 -1.348,0.762 -2.82,0.961 -4.094,1.868 -1.969,1.363 -4.058,2.793 -5.348,5.347 -0.058,4.946 -2.628,8.625 -2.628,8.625 0.714,0.336 3.73,-1.832 3.964,-7.176 3.516,3.7 5.313,9.118 6.582,15.086 2.688,3.676 10.196,2.231 13.04,1.731 0.742,-0.106 1.98,-0.375 2.546,-0.809 0.801,-0.582 0.977,-1.847 2.11,-2.32 1.172,-0.484 2.519,-0.129 3.957,0 0.457,-0.531 0.738,-1.231 1.062,-1.91 0.469,0.019 0.801,0.047 0.965,0.058 l 0.043,0.016 h 0.145 c 4.043,0.07 9.621,2.766 10.097,3.004 l 0.117,0.078 c 0.208,0.074 0.391,0.152 0.598,0.25 -1.582,1.98 -4.062,2.566 -6.293,2.918 -2.781,0.457 -4.312,2.816 -6.969,3.383 -0.695,0.152 -3.046,0.531 -3.839,0.226 -5.918,-0.757 -10.098,1.469 -15.606,1.871 -5.273,0.375 -5.437,-3.21 -7.324,-6.179 -0.742,-1.114 -1.582,-2.406 -2.461,-3.242 -1.434,-1.414 -3.125,-1.454 -4.871,-2.817 -0.09,0.055 -0.168,0.117 -0.254,0.176 -0.344,1.836 -1.106,4.754 -2.441,6.758 -0.04,0.031 -0.059,0.054 -0.079,0.097 -0.128,0.227 -0.246,0.426 -0.371,0.661 -2.882,4.488 -6.125,7.925 -12.472,9.414 -1.219,0.492 -1.407,0.57 -2.227,1.187 -1.004,0.832 -0.273,1.762 0,1.867 1.848,1.035 4.942,0.688 7.012,1.633 5.039,2.352 3.281,6.617 1.289,6.977 -2.559,0.449 -7.149,1.679 -8.055,2.207 -1.222,0.781 -1.972,2.91 -3.965,3.609 -1.523,0.488 -2.812,0.434 -4.179,0.242 -1.231,-0.164 -2.012,-1.074 -2.922,-0.922 1.164,1.625 3.144,2.426 5.715,2.661 -2.207,0.601 -1.465,4.211 -3.52,5.019 -0.855,0.152 -2.156,-0.242 -3.601,-0.976 -0.149,1.128 -0.782,4.949 -2.899,6.187 -1.699,0.988 -2.305,-0.547 -2.226,-1.531 0.078,-0.86 2.597,-1.942 3.035,-5.848 -0.438,-0.285 -0.867,-0.586 -1.309,-0.902 -0.332,1.621 -1.094,4.097 -2.734,5.054 -1.688,0.985 -2.293,-0.507 -2.207,-1.507 0.078,-0.836 2.273,-1.793 2.929,-5.118 -0.593,-0.468 -1.14,-0.964 -1.687,-1.457 -3.41,0.93 -4.172,3.321 -5,3.497 -0.977,0.191 -2.539,-0.282 -1.738,-2.079 0.808,-1.769 3.339,-2.773 4.902,-3.25 -0.363,-0.39 -0.734,-0.785 -1.047,-1.183 -3.965,0.769 -4.773,3.449 -5.644,3.625 -0.965,0.207 -2.547,-0.281 -1.739,-2.059 1.067,-2.281 4.961,-3.301 5.949,-3.535 -0.636,-1.09 -0.968,-2.051 -0.812,-2.773 -3.074,0.367 -8.496,-1.286 -7.48,-4.883 1.027,-0.742 4.648,2.226 7.968,0.566 2.188,-3.402 5.715,-3.551 6.535,-4.172 1.211,-0.984 1.414,-2.718 1.961,-4.339 0.977,-2.915 3.047,-5.293 4.786,-7.895 1.855,-2.891 3.82,-5.895 5.8,-8.383 0.246,-0.676 0.469,-1.418 0.352,-2.457 -2.254,-3.578 -8.992,-7.773 -11.746,-10.355 -2.793,-2.614 -29.1917,-22.696 -32.4924,-31.438 -0.7422,-1.98 -1.1602,-4.492 -1.043,-7.113 -1.6016,-0.856 -4.4453,-0.34 -5.2344,0.586 -1.7578,2.055 1.7852,4.012 0.918,6.758 -0.4024,1.058 -1.7695,1.433 -2.9102,1.058 -1.9453,-0.703 -2.3554,-4.629 -1.3984,-6.984 0.2852,-0.68 1.3203,-1.531 0.5586,-2.043 -0.9766,-0.395 -1.6016,0.605 -1.6016,1.996 -0.539,-0.387 -1.0742,-1.316 -0.8125,-2.273 0.5078,-1.926 2.8516,-1.969 3.6133,-2.473 -0.0976,-0.859 -1.3867,-1.254 -2.2734,-0.457 -1.4571,-2.133 0.1758,-2.945 0.5156,-3.02 1.5937,-0.281 3.3125,1.153 4.3086,1.285 0.4492,-1.093 -0.3242,-1.433 -1.9727,-1.89 2.6368,-3.188 4.9883,2.301 7.918,1.64 0.9297,-0.183 9.2109,-7.949 7.793,-13.851 -0.0664,-0.328 -0.3985,-1.172 -0.5664,-1.399 -1.8438,-2.265 -4.8828,-4.027 -6.9922,-6.175 -4.3438,-2.754 4.1211,-20.117 3.4492,-29.012 -0.5391,-3.477 2.9766,-2.832 4.9883,-8.496 -2.1172,-0.035 -4.2188,-0.543 -5.293,-2.156 0,0 -0.125,-0.168 -0.3203,-0.473 l 0.0391,-0.008 c -0.3633,-0.625 -0.5782,-1.359 -0.5782,-2.16 0,-2.402 1.9453,-4.32 4.3477,-4.32 2.3906,0 4.3555,1.918 4.3555,4.32 0,0.227 -0.0508,0.457 -0.0704,0.648 0.9571,0 2.168,-0.175 3.4961,-0.753 l 3.8401,-2.082 c 0,0 -13.469,-11.325 -35.4104,-4.735 0,0 -9.9804,3.164 -7.1797,12.02 0,0 0.5079,1.496 1.8282,2.34 0.2734,-1.208 1.0039,-2.243 2,-2.961 0.8125,-0.567 1.7968,-0.907 2.8632,-0.907 2.7422,0 4.9805,2.227 4.9805,4.981 0,1.355 -0.5273,2.547 -1.3984,3.453 -0.2031,0.226 -0.418,0.379 -0.6719,0.574 -0.0117,0.035 -0.0586,0.055 -0.0898,0.074 -0.0196,0.02 -0.0469,0.036 -0.0782,0.059 -1.4726,1 -3.7304,1.66 -7.1757,0.754 0,0 -9.5899,-2.77 -6.0938,-13.16 0,0 -6.4766,1.472 -8.9258,-1.496 0,0 -0.8594,-0.938 -0.7812,-2.469 v -0.035 -0.063 c 0.0664,-0.597 0.2539,-1.32 0.6718,-2.105 0.6836,-0.961 1.8282,-1.614 3.0977,-1.614 1.1797,0 2.2344,0.528 2.9297,1.387 0.0078,0.035 0.0273,0.035 0.0273,0.035 0.2657,0.352 0.8985,0.7 2.2383,-0.414 0,0 8.9922,-9.949 22.1875,-8.687 0,0 0.3711,-6.817 4.9805,-8.063 0,0 0.457,-0.09 0.6836,-0.09 1.2695,0 2.2929,1.036 2.2929,2.286 0,1.281 -1.0234,2.296 -2.2929,2.296 -0.0977,0 -0.1875,0 -0.2735,-0.023 -0.0586,0.25 -0.5586,2.254 -0.2929,3.688 0,0 14.4609,1.91 24.219,9.832 0,0 6.66,-1.942 11.082,-2.118 0,0 0.625,-1.519 -2.344,-1.82 0,0 -3.797,0.051 -3.711,-1.152 0,0 -0.254,-1.364 2.766,-1.325 0,0 -0.371,-1.382 2.019,-2.757 0,0 1.543,-0.813 0.742,-1.828 0,0 -2.871,-1.586 -2.039,-3.418 0,0 0.801,-2.325 4.813,-1.739 0,0 1.387,0.059 0.265,-1.133 0,0 -2.011,-2.132 1.387,-3.886 0,0 2.664,-1.449 4.403,1.304 0,0 0.371,1.075 2.003,0.262 0,0 8.594,-3.91 13.036,2.512 0,0 0.273,0.98 1.562,-0.695 0,0 4.426,-5.344 16.516,-5.743 0.761,-1.453 2.273,-2.398 3.992,-2.398 2.226,0 4.074,1.566 4.473,3.699 1.464,0.02 6.769,0.434 12.453,4.215 0,0 2.031,1.262 4.258,2.324 0.117,-3.402 2.89,-6.144 6.328,-6.144 3.484,0 6.316,2.836 6.316,6.328 0,3.097 -2.246,5.68 -5.203,6.207"
         style="fill:#ffffff;fill-opacity:1;fill-rule:nonzero;stroke:none"
         id="path92"
         inkscape:connector-curvature="0" /><path
         d="m 491.012,792.574 c -7.559,0 -13.957,2.707 -18.469,6.074 l 4.172,8.653 c 3.281,-2.871 9.246,-5.449 14.461,-5.449 5.195,0 8.711,3.175 8.711,7.441 0,12.012 -26.184,6.055 -26.184,26.035 0,8.555 6.723,15.598 19.973,15.598 6.66,0 12.277,-1.418 16.894,-3.84 l -3.699,-8.809 c -3.086,1.836 -8.156,3.086 -13.34,3.086 -5.129,0 -8.488,-1.66 -8.488,-5.859 0,-10.164 26.359,-6.211 26.359,-25.547 0,-8.953 -7.472,-17.383 -20.39,-17.383"
         style="fill:#ffffff;fill-opacity:1;fill-rule:nonzero;stroke:none"
         id="path94"
         inkscape:connector-curvature="0" /><path
         d="m 521.203,793.434 v 56.66 h 34.836 v -9.297 h -23.816 v -13.965 h 18.203 l -0.84,-9.727 h -17.363 v -14.539 h 23.816 v -9.132 h -34.836"
         style="fill:#ffffff;fill-opacity:1;fill-rule:nonzero;stroke:none"
         id="path96"
         inkscape:connector-curvature="0" /><path
         d="m 582.289,841.539 h -5.535 v -18.133 h 5.535 c 7.238,0 10.254,3.27 10.254,9.735 0,6.3 -3.613,8.398 -10.254,8.398 z m -5.535,-48.105 h -10.91 v 56.66 h 18.222 c 11.153,0 20.215,-5.203 20.215,-17.039 0,-7.649 -4.355,-13.352 -10.73,-16.321 3.945,-7.859 8.066,-15.41 12,-23.3 h -12.918 l -9.328,21.386 c -2.52,-0.058 -4.207,-0.058 -6.551,-0.058 v -21.328"
         style="fill:#ffffff;fill-opacity:1;fill-rule:nonzero;stroke:none"
         id="path98"
         inkscape:connector-curvature="0" /><path
         d="m 614.008,793.434 v 56.66 h 34.836 v -9.297 h -23.828 v -13.965 h 18.191 l -0.828,-9.727 h -17.363 v -14.539 h 23.828 v -9.132 h -34.836"
         style="fill:#ffffff;fill-opacity:1;fill-rule:nonzero;stroke:none"
         id="path100"
         inkscape:connector-curvature="0" /><path
         d="m 707.848,793.434 -1.172,47.851 h -0.352 c -1.015,-6.055 -2.004,-10.41 -2.773,-13.691 l -8.047,-34.16 h -16.203 l -7.715,34.16 c -0.781,3.281 -1.785,7.636 -2.852,13.691 h -0.351 l -0.731,-47.851 h -10.078 l 2.168,56.66 h 18.887 c 0,0 6.211,-28.535 9.492,-46.836 h 0.242 c 3.77,18.234 11.172,46.836 11.172,46.836 h 18.543 l 2.18,-56.66 h -12.41"
         style="fill:#ffffff;fill-opacity:1;fill-rule:nonzero;stroke:none"
         id="path102"
         inkscape:connector-curvature="0" /><path
         d="m 732.406,793.434 v 56.66 h 10.977 v -56.66 h -10.977"
         style="fill:#ffffff;fill-opacity:1;fill-rule:nonzero;stroke:none"
         id="path104"
         inkscape:connector-curvature="0" /><path
         d="m 578.695,749.523 -0.703,4.032 13.606,3.816 0.898,-5.156 -13.801,-2.692"
         style="fill:#ffffff;fill-opacity:1;fill-rule:nonzero;stroke:none"
         id="path106"
         inkscape:connector-curvature="0" /><path
         d="m 483.258,749.93 h -3.555 v -11.621 h 3.555 c 4.609,0 6.543,2.109 6.543,6.238 0,4.004 -2.305,5.383 -6.543,5.383 z m -3.555,-30.782 h -6.965 v 36.231 h 11.653 c 7.117,0 12.91,-3.32 12.91,-10.899 0,-4.863 -2.805,-8.527 -6.875,-10.39 2.527,-5.039 5.176,-9.895 7.695,-14.942 h -8.262 l -5.968,13.711 c -1.621,-0.05 -2.696,-0.05 -4.188,-0.05 v -13.661"
         style="fill:#ffffff;fill-opacity:1;fill-rule:nonzero;stroke:none"
         id="path108"
         inkscape:connector-curvature="0" /><path
         d="m 513.59,740.848 c -3.496,0 -4.942,-3.164 -4.942,-6.27 h 9.598 c 0,3.36 -1.004,6.27 -4.656,6.27 z m -4.942,-10.41 c 0,-4.2 2.344,-6.516 6.747,-6.516 2.695,0 5.441,1.047 7.746,2.207 l 1.355,-4.91 c -2.215,-1.192 -5.808,-2.59 -9.941,-2.59 -8.114,0 -12.91,5.051 -12.91,13.742 0,8.086 3.898,13.621 12.324,13.621 7.949,0 11.035,-5.906 11.035,-12.5 v -3.054 h -16.356"
         style="fill:#ffffff;fill-opacity:1;fill-rule:nonzero;stroke:none"
         id="path110"
         inkscape:connector-curvature="0" /><path
         d="m 545.531,737.078 c 0,3.125 -2.625,3.906 -4.66,3.906 -2.047,0 -4.734,-0.781 -4.734,-3.906 0,-3.332 2.531,-4.14 4.734,-4.14 2.133,0 4.66,0.808 4.66,4.14 z m -5.691,-16.426 c -2.461,-0.207 -4.024,-1.601 -4.024,-3.847 0,-2.317 2.098,-3.977 4.942,-3.977 3.172,0 5.254,1.594 5.254,4.348 0,2.304 -2.051,3.164 -6.172,3.476 z m 14.336,24.766 -0.129,-5.156 c -1.219,0.039 -3.152,0.312 -4.93,0.898 1.199,-1.074 2.418,-2.414 2.625,-4.133 0,-6.433 -6.375,-8.992 -10.832,-8.992 -1.023,0 -2.242,0.184 -3.367,0.469 -0.809,-0.285 -1.297,-0.742 -1.297,-1.445 0,-2.864 16.699,0.488 16.699,-9.414 0,-6.165 -5.898,-9.532 -12.519,-9.532 -5.528,0 -11.106,2.41 -11.106,7.227 0,3.398 2.696,5.195 6.973,5.808 -3.27,0.364 -6.531,1.379 -6.531,4.465 0,2.188 2.039,3.789 4.988,4.024 -2.629,1.453 -4.746,3.633 -4.746,7.39 0,6.985 6.633,8.965 10.867,8.965 2.832,0 8.742,-0.488 13.305,-0.574"
         style="fill:#ffffff;fill-opacity:1;fill-rule:nonzero;stroke:none"
         id="path112"
         inkscape:connector-curvature="0" /><path
         d="m 560.699,756.18 h 7.059 v -6.367 h -7.059 z m 0.211,-37.032 v 21.27 l -3.074,0.625 v 4.375 h 10.039 v -26.27 h -6.965"
         style="fill:#ffffff;fill-opacity:1;fill-rule:nonzero;stroke:none"
         id="path114"
         inkscape:connector-curvature="0" /><path
         d="m 590.688,732.371 c 0,6.328 -1.864,8.516 -5.145,8.516 -3.281,0 -5.098,-2.258 -5.098,-8.516 0,-6.133 1.641,-8.594 5.098,-8.594 3.437,0 5.145,2.325 5.145,8.594 z m 7.207,0 c 0,-8.965 -4.524,-13.742 -12.352,-13.742 -7.902,0 -12.344,4.707 -12.344,13.742 0,7.715 4.285,13.621 12.344,13.621 7.949,0 12.352,-5.906 12.352,-13.621"
         style="fill:#ffffff;fill-opacity:1;fill-rule:nonzero;stroke:none"
         id="path116"
         inkscape:connector-curvature="0" /><path
         d="m 619.469,719.148 v 15.625 c 0,3.973 -1.504,5.868 -4.707,5.868 -1.828,0 -3.379,-0.828 -4.629,-1.629 v -19.864 h -7.012 v 26.27 h 4.824 l 1.051,-2.969 c 1.496,1.778 4.414,3.543 8.324,3.543 6.649,0 9.278,-3.914 9.278,-10.554 v -16.29 h -7.129"
         style="fill:#ffffff;fill-opacity:1;fill-rule:nonzero;stroke:none"
         id="path118"
         inkscape:connector-curvature="0" /><path
         d="m 660.551,739.461 c -1.063,0.625 -2.742,1.269 -4.774,1.269 -3.339,0 -5.429,-2.246 -5.429,-8.359 0,-6.269 1.98,-8.664 5.312,-8.664 1.778,0 3.543,0.879 4.891,2.277 z m 0.644,3.973 c -0.437,1.504 -0.644,2.824 -0.644,4.796 v 7.95 h 6.972 v -37.032 h -5.695 l -0.808,2.911 c -1.055,-1.614 -3.582,-3.43 -6.954,-3.43 -5.964,0 -10.75,4.289 -10.75,13.684 0,8.671 4.942,13.679 11.329,13.679 2.851,0 5.097,-0.965 6.55,-2.558"
         style="fill:#ffffff;fill-opacity:1;fill-rule:nonzero;stroke:none"
         id="path120"
         inkscape:connector-curvature="0" /><path
         d="m 684.82,740.848 c -3.507,0 -4.941,-3.164 -4.941,-6.27 h 9.598 c 0,3.36 -0.997,6.27 -4.657,6.27 z m -4.941,-10.41 c 0,-4.2 2.363,-6.516 6.746,-6.516 2.695,0 5.441,1.047 7.746,2.207 l 1.328,-4.91 c -2.187,-1.192 -5.773,-2.59 -9.894,-2.59 -8.125,0 -12.957,5.051 -12.957,13.742 0,8.086 3.914,13.621 12.351,13.621 7.922,0 11.047,-5.906 11.047,-12.5 v -3.054 h -16.367"
         style="fill:#ffffff;fill-opacity:1;fill-rule:nonzero;stroke:none"
         id="path122"
         inkscape:connector-curvature="0" /><path
         d="m 713.98,719.148 v 36.231 h 7.032 v -30.324 h 15.234 v -5.907 H 713.98"
         style="fill:#ffffff;fill-opacity:1;fill-rule:nonzero;stroke:none"
         id="path124"
         inkscape:connector-curvature="0" /><path
         d="m 756.441,732.371 c 0,6.328 -1.855,8.516 -5.136,8.516 -3.274,0 -5.117,-2.258 -5.117,-8.516 0,-6.133 1.679,-8.594 5.117,-8.594 3.425,0 5.136,2.325 5.136,8.594 z m 7.215,0 c 0,-8.965 -4.519,-13.742 -12.351,-13.742 -7.895,0 -12.356,4.707 -12.356,13.742 0,7.715 4.309,13.621 12.356,13.621 7.929,0 12.351,-5.906 12.351,-13.621"
         style="fill:#ffffff;fill-opacity:1;fill-rule:nonzero;stroke:none"
         id="path126"
         inkscape:connector-curvature="0" /><path
         d="m 774.977,738.531 c 0,-4.082 11.375,-2.832 11.375,-11.433 0,-4.766 -3.543,-8.469 -10.36,-8.469 -3.164,0 -6.133,0.91 -7.89,1.934 l 1.445,4.875 c 1.238,-0.852 3.816,-1.829 6.25,-1.829 2.293,0 3.848,1.289 3.848,2.891 0,4.719 -11.235,3.176 -11.235,12.129 0,3.879 2.961,7.363 10.043,7.363 2.75,0 5.574,-0.574 7.422,-1.277 l -0.969,-5.098 c -1.765,0.801 -4.023,1.317 -6.328,1.317 -2.422,0 -3.601,-0.887 -3.601,-2.403"
         style="fill:#ffffff;fill-opacity:1;fill-rule:nonzero;stroke:none"
         id="path128"
         inkscape:connector-curvature="0" /><path
         d="m 814.613,749.93 h -3.554 v -11.621 h 3.554 c 4.602,0 6.535,2.109 6.535,6.238 0,4.004 -2.304,5.383 -6.535,5.383 z m -3.554,-30.782 h -6.981 v 36.231 h 11.641 c 7.148,0 12.949,-3.32 12.949,-10.899 0,-4.863 -2.793,-8.527 -6.875,-10.39 2.535,-5.039 5.156,-9.895 7.676,-14.942 h -8.266 l -5.953,13.711 c -1.602,-0.05 -2.676,-0.05 -4.191,-0.05 v -13.661"
         style="fill:#ffffff;fill-opacity:1;fill-rule:nonzero;stroke:none"
         id="path130"
         inkscape:connector-curvature="0" /><path
         d="m 836.148,719.148 v 21.27 l -3.085,0.625 v 4.375 h 10.058 v -26.27 z m -3.828,30.391 -0.695,4.024 13.594,3.789 0.898,-5.118 -13.797,-2.695"
         style="fill:#ffffff;fill-opacity:1;fill-rule:nonzero;stroke:none"
         id="path132"
         inkscape:connector-curvature="0" /><path
         d="m 866.031,732.371 c 0,6.328 -1.867,8.516 -5.148,8.516 -3.281,0 -5.106,-2.258 -5.106,-8.516 0,-6.133 1.676,-8.594 5.106,-8.594 3.43,0 5.148,2.325 5.148,8.594 z m 7.207,0 c 0,-8.965 -4.511,-13.742 -12.355,-13.742 -7.879,0 -12.332,4.707 -12.332,13.742 0,7.715 4.285,13.621 12.332,13.621 7.969,0 12.355,-5.906 12.355,-13.621"
         style="fill:#ffffff;fill-opacity:1;fill-rule:nonzero;stroke:none"
         id="path134"
         inkscape:connector-curvature="0" /><path
         d="m 884.574,738.531 c 0,-4.082 11.387,-2.832 11.387,-11.433 0,-4.766 -3.555,-8.469 -10.383,-8.469 -3.152,0 -6.101,0.91 -7.887,1.934 l 1.465,4.875 c 1.231,-0.852 3.809,-1.829 6.231,-1.829 2.293,0 3.855,1.289 3.855,2.891 0,4.719 -11.23,3.176 -11.23,12.129 0,3.879 2.968,7.363 10.058,7.363 2.727,0 5.559,-0.574 7.403,-1.277 l -0.965,-5.098 c -1.789,0.801 -4.024,1.317 -6.328,1.317 -2.422,0 -3.606,-0.887 -3.606,-2.403"
         style="fill:#ffffff;fill-opacity:1;fill-rule:nonzero;stroke:none"
         id="path136"
         inkscape:connector-curvature="0" /><path
         d="m 515.18,183.09 -0.957,38.789 h -0.274 c -0.808,-4.899 -1.629,-8.441 -2.246,-11.09 l -6.531,-27.699 h -13.125 l -6.27,27.699 c -0.605,2.649 -1.425,6.191 -2.316,11.09 h -0.262 l -0.617,-38.789 h -8.164 l 1.77,45.933 h 15.308 c 0,0 5.031,-23.136 7.688,-37.972 h 0.207 c 3.062,14.765 9.05,37.972 9.05,37.972 h 15.039 l 1.766,-45.933 H 515.18"
         style="fill:#ffffff;fill-opacity:1;fill-rule:nonzero;stroke:none"
         id="path138"
         inkscape:connector-curvature="0" /><path
         d="m 535.348,230.047 h 8.98 v -8.102 h -8.98 z m 0.273,-46.957 v 26.945 l -3.887,0.817 v 5.582 h 12.735 V 183.09 h -8.848"
         style="fill:#ffffff;fill-opacity:1;fill-rule:nonzero;stroke:none"
         id="path140"
         inkscape:connector-curvature="0" /><path
         d="m 573.227,183.09 v 19.801 c 0,5.035 -1.903,7.418 -5.985,7.418 -2.316,0 -4.289,-1.02 -5.851,-2.039 v -25.18 h -8.914 v 33.344 h 6.121 l 1.367,-3.809 c 1.906,2.246 5.578,4.492 10.547,4.492 8.437,0 11.769,-4.972 11.769,-13.41 V 183.09 h -9.054"
         style="fill:#ffffff;fill-opacity:1;fill-rule:nonzero;stroke:none"
         id="path142"
         inkscape:connector-curvature="0" /><path
         d="m 591.988,230.047 h 8.985 v -8.102 h -8.985 z m 0.274,-46.957 v 26.945 l -3.891,0.817 v 5.582 h 12.738 V 183.09 h -8.847"
         style="fill:#ffffff;fill-opacity:1;fill-rule:nonzero;stroke:none"
         id="path144"
         inkscape:connector-curvature="0" /><path
         d="m 616.871,207.652 c 0,-5.172 14.434,-3.601 14.434,-14.492 0,-6.058 -4.492,-10.75 -13.137,-10.75 -4.012,0 -7.762,1.156 -10.008,2.445 l 1.844,6.196 c 1.562,-1.086 4.824,-2.313 7.891,-2.313 2.929,0 4.902,1.629 4.902,3.672 0,5.988 -14.227,4.016 -14.227,15.379 0,4.902 3.739,9.328 12.723,9.328 3.477,0 7.078,-0.683 9.395,-1.637 l -1.219,-6.464 c -2.246,1.019 -5.11,1.703 -8.039,1.703 -3.059,0 -4.559,-1.156 -4.559,-3.067"
         style="fill:#ffffff;fill-opacity:1;fill-rule:nonzero;stroke:none"
         id="path146"
         inkscape:connector-curvature="0" /><path
         d="m 650.602,182.41 c -5.918,0 -9.797,2.785 -9.797,11.156 v 16.539 h -4.969 v 6.329 h 4.969 v 5.785 l 8.781,2.855 v -8.64 h 8.914 v -6.329 h -8.914 V 193.77 c 0,-2.313 1.152,-3.805 3.535,-3.805 1.832,0 3.738,0.539 5.106,1.223 l 1.359,-6.532 c -1.973,-1.156 -5.441,-2.246 -8.984,-2.246"
         style="fill:#ffffff;fill-opacity:1;fill-rule:nonzero;stroke:none"
         id="path148"
         inkscape:connector-curvature="0" /><path
         d="m 677.465,210.582 c -4.422,0 -6.27,-4.019 -6.27,-7.965 h 12.188 c 0,4.289 -1.297,7.965 -5.918,7.965 z m -6.27,-13.203 c 0,-5.309 3,-8.238 8.575,-8.238 3.41,0 6.875,1.297 9.804,2.793 l 1.699,-6.258 c -2.793,-1.5 -7.343,-3.266 -12.585,-3.266 -10.278,0 -16.399,6.395 -16.399,17.422 0,10.273 4.961,17.285 15.645,17.285 10.078,0 14.023,-7.484 14.023,-15.859 v -3.879 h -20.762"
         style="fill:#ffffff;fill-opacity:1;fill-rule:nonzero;stroke:none"
         id="path150"
         inkscape:connector-curvature="0" /><path
         d="m 717.582,209.016 c -1.082,0.339 -2.656,0.547 -4.148,0.547 -2.383,0 -4.493,-1.02 -5.989,-2.247 V 183.09 h -8.847 v 33.344 h 6.191 l 0.957,-4.489 h 0.207 c 1.016,2.379 4.012,5.102 7.957,5.102 1.77,0 3.125,-0.274 3.875,-0.477 l -0.203,-7.554"
         style="fill:#ffffff;fill-opacity:1;fill-rule:nonzero;stroke:none"
         id="path152"
         inkscape:connector-curvature="0" /><path
         d="m 725.395,230.047 h 8.984 v -8.102 h -8.984 z m 0.273,-46.957 v 26.945 l -3.887,0.817 v 5.582 h 12.735 V 183.09 h -8.848"
         style="fill:#ffffff;fill-opacity:1;fill-rule:nonzero;stroke:none"
         id="path154"
         inkscape:connector-curvature="0" /><path
         d="m 763.41,199.832 c 0,8.027 -2.379,10.82 -6.531,10.82 -4.149,0 -6.465,-2.863 -6.465,-10.82 0,-7.762 2.109,-10.891 6.465,-10.891 4.355,0 6.531,2.926 6.531,10.891 z m 9.125,0 c 0,-11.367 -5.715,-17.422 -15.656,-17.422 -10,0 -15.645,5.985 -15.645,17.422 0,9.801 5.442,17.285 15.645,17.285 10.078,0 15.656,-7.484 15.656,-17.285"
         style="fill:#ffffff;fill-opacity:1;fill-rule:nonzero;stroke:none"
         id="path156"
         inkscape:connector-curvature="0" /><path
         d="m 814.887,208.809 c -1.356,0.824 -3.465,1.636 -6.055,1.636 -4.219,0 -6.875,-2.855 -6.875,-10.613 0,-7.965 2.52,-10.957 6.738,-10.957 2.246,0 4.493,1.09 6.192,2.855 z m 0.82,5.039 c -0.547,1.906 -0.82,3.605 -0.82,6.125 v 10.074 h 8.847 V 183.09 h -7.207 l -1.023,3.676 c -1.359,-2.047 -4.563,-4.356 -8.848,-4.356 -7.551,0 -13.613,5.442 -13.613,17.352 0,11.027 6.27,17.355 14.363,17.355 3.606,0 6.465,-1.226 8.301,-3.269"
         style="fill:#ffffff;fill-opacity:1;fill-rule:nonzero;stroke:none"
         id="path158"
         inkscape:connector-curvature="0" /><path
         d="m 845.621,210.582 c -4.426,0 -6.262,-4.019 -6.262,-7.965 h 12.176 c 0,4.289 -1.285,7.965 -5.914,7.965 z m -6.262,-13.203 c 0,-5.309 3,-8.238 8.575,-8.238 3.398,0 6.875,1.297 9.796,2.793 l 1.708,-6.258 c -2.793,-1.5 -7.352,-3.266 -12.598,-3.266 -10.274,0 -16.395,6.395 -16.395,17.422 0,10.273 4.969,17.285 15.653,17.285 10.07,0 14.015,-7.484 14.015,-15.859 v -3.879 h -20.754"
         style="fill:#ffffff;fill-opacity:1;fill-rule:nonzero;stroke:none"
         id="path160"
         inkscape:connector-curvature="0" /><path
         d="m 896.813,191.934 v 38.113 h 8.777 V 192.41 c 0,-2.789 1.699,-3.199 5.371,-3.199 v -6.262 c 0,0 -2.578,-0.539 -4.891,-0.539 -6.808,0 -9.257,3.602 -9.257,9.524"
         style="fill:#ffffff;fill-opacity:1;fill-rule:nonzero;stroke:none"
         id="path162"
         inkscape:connector-curvature="0" /><path
         d="m 934.77,197.652 h -5.516 c -3.676,0 -5.371,-1.769 -5.371,-4.285 0,-3.066 1.629,-4.902 4.961,-4.902 2.109,0 4.285,0.953 5.926,2.246 z m 2.511,-14.562 -1.222,3.941 c -1.7,-2.312 -5.039,-4.621 -9.727,-4.621 -6.672,0 -11.16,4.285 -11.16,10.684 0,6.191 4.558,9.867 12.586,9.867 h 7.012 v 1.699 c 0,4.285 -2.45,5.649 -5.86,5.649 -3.945,0 -7.273,-1.02 -10,-2.246 l -2.246,6.328 c 3.332,1.429 7.891,2.726 13.137,2.726 9.461,0 13.543,-4.355 13.543,-12.863 V 183.09 h -6.063"
         style="fill:#ffffff;fill-opacity:1;fill-rule:nonzero;stroke:none"
         id="path164"
         inkscape:connector-curvature="0" /><path
         d="m 958.754,207.652 c 0,-5.172 14.434,-3.601 14.434,-14.492 0,-6.058 -4.493,-10.75 -13.133,-10.75 -4.016,0 -7.766,1.156 -10.012,2.445 l 1.848,6.196 c 1.562,-1.086 4.824,-2.313 7.89,-2.313 2.93,0 4.903,1.629 4.903,3.672 0,5.988 -14.231,4.016 -14.231,15.379 0,4.902 3.742,9.328 12.727,9.328 3.476,0 7.078,-0.683 9.394,-1.637 l -1.222,-6.464 c -2.247,1.019 -5.106,1.703 -8.036,1.703 -3.058,0 -4.562,-1.156 -4.562,-3.067"
         style="fill:#ffffff;fill-opacity:1;fill-rule:nonzero;stroke:none"
         id="path166"
         inkscape:connector-curvature="0" /><path
         d="m 493.676,113.102 c -12.93,0 -19.871,8.574 -19.871,23.886 0,14.293 6.875,23.41 19.871,23.41 6.262,0 11.902,-1.363 15.652,-3.878 l -3.406,-7.215 c -2.383,1.84 -6.531,3.199 -11.301,3.199 -7.613,0 -11.422,-5.379 -11.422,-15.445 0,-10.621 3.809,-16.067 11.289,-16.067 4.492,0 8.985,1.91 12.117,4.223 L 509.469,118 c -4.563,-3.129 -9.739,-4.898 -15.793,-4.898"
         style="fill:#ffffff;fill-opacity:1;fill-rule:nonzero;stroke:none"
         id="path168"
         inkscape:connector-curvature="0" /><path
         d="m 537.066,113.781 -1.367,4.082 c -1.562,-2.043 -5.097,-4.761 -10.414,-4.761 -8.297,0 -12.105,4.625 -12.105,13.816 v 20.207 h 8.847 v -20.277 c 0,-5.102 1.836,-6.946 5.848,-6.946 2.316,0 4.426,0.891 5.988,1.981 v 25.242 h 9.051 v -33.344 h -5.848"
         style="fill:#ffffff;fill-opacity:1;fill-rule:nonzero;stroke:none"
         id="path170"
         inkscape:connector-curvature="0" /><path
         d="m 549.684,122.629 v 38.109 h 8.777 v -37.636 c 0,-2.789 1.711,-3.2 5.383,-3.2 v -6.257 c 0,0 -2.59,-0.543 -4.903,-0.543 -6.808,0 -9.257,3.605 -9.257,9.527"
         style="fill:#ffffff;fill-opacity:1;fill-rule:nonzero;stroke:none"
         id="path172"
         inkscape:connector-curvature="0" /><path
         d="m 581.246,113.102 c -5.918,0 -9.797,2.789 -9.797,11.156 v 16.539 h -4.969 v 6.328 h 4.969 v 5.789 l 8.781,2.856 v -8.645 h 8.915 v -6.328 h -8.915 v -16.332 c 0,-2.317 1.153,-3.809 3.536,-3.809 1.836,0 3.738,0.543 5.105,1.227 l 1.359,-6.535 c -1.972,-1.157 -5.441,-2.246 -8.984,-2.246"
         style="fill:#ffffff;fill-opacity:1;fill-rule:nonzero;stroke:none"
         id="path174"
         inkscape:connector-curvature="0" /><path
         d="m 618.52,113.781 -1.368,4.082 c -1.562,-2.043 -5.097,-4.761 -10.41,-4.761 -8.301,0 -12.109,4.625 -12.109,13.816 v 20.207 h 8.847 v -20.277 c 0,-5.102 1.836,-6.946 5.848,-6.946 2.317,0 4.426,0.891 5.988,1.981 v 25.242 h 9.055 v -33.344 h -5.851"
         style="fill:#ffffff;fill-opacity:1;fill-rule:nonzero;stroke:none"
         id="path176"
         inkscape:connector-curvature="0" /><path
         d="m 649.996,139.711 c -1.086,0.34 -2.656,0.547 -4.152,0.547 -2.383,0 -4.492,-1.024 -5.985,-2.25 v -24.227 h -8.847 v 33.344 h 6.191 l 0.957,-4.488 h 0.203 c 1.016,2.379 4.016,5.105 7.961,5.105 1.766,0 3.125,-0.273 3.875,-0.48 l -0.203,-7.551"
         style="fill:#ffffff;fill-opacity:1;fill-rule:nonzero;stroke:none"
         id="path178"
         inkscape:connector-curvature="0" /><path
         d="m 672.027,128.348 h -5.519 c -3.672,0 -5.371,-1.774 -5.371,-4.289 0,-3.067 1.633,-4.903 4.961,-4.903 2.109,0 4.289,0.953 5.929,2.246 z m 2.508,-14.567 -1.219,3.946 c -1.699,-2.313 -5.039,-4.625 -9.726,-4.625 -6.672,0 -11.164,4.289 -11.164,10.683 0,6.192 4.562,9.867 12.59,9.867 h 7.011 v 1.7 c 0,4.289 -2.453,5.652 -5.859,5.652 -3.945,0 -7.277,-1.024 -10,-2.246 l -2.246,6.328 c 3.328,1.43 7.891,2.723 13.133,2.723 9.465,0 13.547,-4.356 13.547,-12.86 v -21.168 h -6.067"
         style="fill:#ffffff;fill-opacity:1;fill-rule:nonzero;stroke:none"
         id="path180"
         inkscape:connector-curvature="0" /><path
         d="m 695.336,138.348 c 0,-5.172 14.426,-3.606 14.426,-14.493 0,-6.058 -4.492,-10.753 -13.137,-10.753 -4.012,0 -7.754,1.156 -10,2.449 l 1.836,6.195 c 1.562,-1.09 4.836,-2.316 7.891,-2.316 2.929,0 4.902,1.633 4.902,3.672 0,5.992 -14.219,4.019 -14.219,15.382 0,4.903 3.742,9.325 12.727,9.325 3.465,0 7.078,-0.684 9.394,-1.633 l -1.23,-6.465 c -2.246,1.019 -5.11,1.703 -8.028,1.703 -3.07,0 -4.562,-1.156 -4.562,-3.066"
         style="fill:#ffffff;fill-opacity:1;fill-rule:nonzero;stroke:none"
         id="path182"
         inkscape:connector-curvature="0" /><path
         d="m 715.25,123.375 h 8.984 v -10.141 c 0,-5.714 -3.261,-8.097 -8.984,-8.711 v 4.629 c 1.23,0.274 2.109,1.43 2.109,4.629 l -2.109,1.02 v 8.574"
         style="fill:#ffffff;fill-opacity:1;fill-rule:nonzero;stroke:none"
         id="path184"
         inkscape:connector-curvature="0" /><path
         d="m 745.094,122.629 v 38.109 h 8.777 v -37.636 c 0,-2.789 1.707,-3.2 5.383,-3.2 v -6.257 c 0,0 -2.59,-0.543 -4.902,-0.543 -6.809,0 -9.258,3.605 -9.258,9.527"
         style="fill:#ffffff;fill-opacity:1;fill-rule:nonzero;stroke:none"
         id="path186"
         inkscape:connector-curvature="0" /><path
         d="m 782.379,128.348 h -5.52 c -3.671,0 -5.371,-1.774 -5.371,-4.289 0,-3.067 1.633,-4.903 4.961,-4.903 2.11,0 4.289,0.953 5.93,2.246 z m 2.508,-14.567 -1.219,3.946 c -1.699,-2.313 -5.039,-4.625 -9.727,-4.625 -6.671,0 -11.164,4.289 -11.164,10.683 0,6.192 4.563,9.867 12.59,9.867 h 7.012 v 1.7 c 0,4.289 -2.453,5.652 -5.859,5.652 -3.946,0 -7.278,-1.024 -10,-2.246 l -2.247,6.328 c 3.329,1.43 7.887,2.723 13.133,2.723 9.465,0 13.547,-4.356 13.547,-12.86 v -21.168 h -6.066"
         style="fill:#ffffff;fill-opacity:1;fill-rule:nonzero;stroke:none"
         id="path188"
         inkscape:connector-curvature="0" /><path
         d="m 805.688,138.348 c 0,-5.172 14.425,-3.606 14.425,-14.493 0,-6.058 -4.492,-10.753 -13.136,-10.753 -4.012,0 -7.754,1.156 -10,2.449 l 1.836,6.195 c 1.562,-1.09 4.835,-2.316 7.89,-2.316 2.93,0 4.902,1.633 4.902,3.672 0,5.992 -14.218,4.019 -14.218,15.382 0,4.903 3.742,9.325 12.726,9.325 3.465,0 7.078,-0.684 9.395,-1.633 l -1.231,-6.465 c -2.246,1.019 -5.109,1.703 -8.027,1.703 -3.066,0 -4.562,-1.156 -4.562,-3.066"
         style="fill:#ffffff;fill-opacity:1;fill-rule:nonzero;stroke:none"
         id="path190"
         inkscape:connector-curvature="0" /><path
         d="m 855.395,151.891 -5.04,-20.551 h 12.532 l -4.699,20.551 z m -9.122,-38.11 h -8.71 l 12.46,45.938 h 14.836 l 12.039,-45.938 h -10 l -2.382,10.344 h -15.789 l -2.454,-10.344"
         style="fill:#ffffff;fill-opacity:1;fill-rule:nonzero;stroke:none"
         id="path192"
         inkscape:connector-curvature="0" /><path
         d="m 900.004,139.711 c -1.082,0.34 -2.656,0.547 -4.149,0.547 -2.382,0 -4.492,-1.024 -5.988,-2.25 v -24.227 h -8.847 v 33.344 h 6.191 l 0.957,-4.488 h 0.207 c 1.016,2.379 4.012,5.105 7.957,5.105 1.77,0 3.125,-0.273 3.879,-0.48 l -0.207,-7.551"
         style="fill:#ffffff;fill-opacity:1;fill-rule:nonzero;stroke:none"
         id="path194"
         inkscape:connector-curvature="0" /><path
         d="m 916.996,113.102 c -5.918,0 -9.793,2.789 -9.793,11.156 v 16.539 h -4.973 v 6.328 h 4.973 v 5.789 l 8.777,2.856 v -8.645 h 8.918 v -6.328 h -8.918 v -16.332 c 0,-2.317 1.153,-3.809 3.536,-3.809 1.836,0 3.742,0.543 5.109,1.227 l 1.355,-6.535 c -1.972,-1.157 -5.437,-2.246 -8.984,-2.246"
         style="fill:#ffffff;fill-opacity:1;fill-rule:nonzero;stroke:none"
         id="path196"
         inkscape:connector-curvature="0" /><path
         d="m 943.18,141.277 c -4.426,0 -6.262,-4.019 -6.262,-7.964 h 12.18 c 0,4.285 -1.289,7.964 -5.918,7.964 z m -6.262,-13.203 c 0,-5.308 3,-8.238 8.574,-8.238 3.399,0 6.875,1.293 9.793,2.793 l 1.711,-6.262 c -2.793,-1.496 -7.351,-3.265 -12.598,-3.265 -10.273,0 -16.394,6.398 -16.394,17.421 0,10.274 4.969,17.286 15.652,17.286 10.071,0 14.016,-7.485 14.016,-15.86 v -3.875 h -20.754"
         style="fill:#ffffff;fill-opacity:1;fill-rule:nonzero;stroke:none"
         id="path198"
         inkscape:connector-curvature="0" /><path
         d="m 971.391,138.348 c 0,-5.172 14.425,-3.606 14.425,-14.493 0,-6.058 -4.492,-10.753 -13.136,-10.753 -4.012,0 -7.754,1.156 -10,2.449 l 1.836,6.195 c 1.562,-1.09 4.836,-2.316 7.89,-2.316 2.93,0 4.903,1.633 4.903,3.672 0,5.992 -14.219,4.019 -14.219,15.382 0,4.903 3.738,9.325 12.726,9.325 3.465,0 7.079,-0.684 9.395,-1.633 l -1.231,-6.465 c -2.246,1.019 -5.109,1.703 -8.027,1.703 -3.066,0 -4.562,-1.156 -4.562,-3.066"
         style="fill:#ffffff;fill-opacity:1;fill-rule:nonzero;stroke:none"
         id="path200"
         inkscape:connector-curvature="0" /><path
         d="m 487.543,45.2227 -6.199,-1.0899 -9.934,33.6875 h 10 l 7.082,-27.9687 h 0.137 l 7.148,27.9687 h 8.844 L 494.34,43.6602 c -2.852,-9.5977 -7.684,-13.1368 -14.559,-13.1368 -3.742,0 -7.961,2.1094 -9.394,3.336 l 2.793,6.0547 h 0.816 c 0.277,-0.2032 3.059,-2.3828 6.195,-2.3828 3.536,0 5.848,2.4492 7.079,6.7382 l 0.273,0.9532"
         style="fill:#ffffff;fill-opacity:1;fill-rule:nonzero;stroke:none"
         id="path202"
         inkscape:connector-curvature="0" /><path
         d="m 538.199,71.9688 c -4.426,0 -6.269,-4.0196 -6.269,-7.961 h 12.187 c 0,4.2852 -1.301,7.961 -5.918,7.961 z M 531.93,58.7656 c 0,-5.3047 2.996,-8.2383 8.574,-8.2383 3.406,0 6.875,1.2969 9.805,2.793 l 1.699,-6.2578 c -2.793,-1.5 -7.348,-3.2656 -12.59,-3.2656 -10.273,0 -16.395,6.3945 -16.395,17.4219 0,10.2734 4.961,17.2851 15.645,17.2851 10.078,0 14.023,-7.4883 14.023,-15.8594 V 58.7656 H 531.93"
         style="fill:#ffffff;fill-opacity:1;fill-rule:nonzero;stroke:none"
         id="path204"
         inkscape:connector-curvature="0" /><path
         d="m 559.469,53.3203 v 38.1133 h 8.777 V 53.7969 c 0,-2.7891 1.699,-3.1992 5.371,-3.1992 v -6.2579 c 0,0 -2.578,-0.5429 -4.89,-0.5429 -6.809,0 -9.258,3.6015 -9.258,9.5234"
         style="fill:#ffffff;fill-opacity:1;fill-rule:nonzero;stroke:none"
         id="path206"
         inkscape:connector-curvature="0" /><path
         d="m 608.305,82.8594 h -4.832 V 67.4766 h 4.832 c 5.234,0 8.23,3.1992 8.23,8.2343 0,4.6954 -3.133,7.1485 -8.23,7.1485 z M 608.5,60.4648 h -5.027 V 44.4727 h -8.918 V 90.4141 H 608.5 c 9.395,0 17.492,-4.4922 17.492,-14.3633 0,-8.8477 -6.672,-15.586 -17.492,-15.586"
         style="fill:#ffffff;fill-opacity:1;fill-rule:nonzero;stroke:none"
         id="path208"
         inkscape:connector-curvature="0" /><path
         d="m 647.613,59.0391 h -5.519 c -3.672,0 -5.371,-1.7735 -5.371,-4.2852 0,-3.0664 1.632,-4.9023 4.961,-4.9023 2.109,0 4.289,0.9492 5.929,2.2461 z m 2.508,-14.5664 -1.219,3.9492 c -1.699,-2.3164 -5.039,-4.625 -9.726,-4.625 -6.672,0 -11.164,4.2851 -11.164,10.6836 0,6.1914 4.562,9.8672 12.59,9.8672 h 7.011 v 1.6992 c 0,4.289 -2.453,5.6484 -5.859,5.6484 -3.945,0 -7.277,-1.0195 -10,-2.2461 l -2.246,6.3281 c 3.328,1.4336 7.89,2.7266 13.133,2.7266 9.464,0 13.547,-4.3555 13.547,-12.8633 V 44.4727 h -6.067"
         style="fill:#ffffff;fill-opacity:1;fill-rule:nonzero;stroke:none"
         id="path210"
         inkscape:connector-curvature="0" /><path
         d="m 676.227,43.7969 c -5.918,0 -9.797,2.789 -9.797,11.1562 v 16.5391 h -4.969 v 6.3281 h 4.969 v 5.7852 l 8.781,2.8554 v -8.6406 h 8.914 v -6.3281 h -8.914 V 55.1563 c 0,-2.3125 1.152,-3.8086 3.535,-3.8086 1.832,0 3.738,0.5429 5.106,1.2265 l 1.359,-6.5312 c -1.973,-1.1602 -5.441,-2.2461 -8.984,-2.2461"
         style="fill:#ffffff;fill-opacity:1;fill-rule:nonzero;stroke:none"
         id="path212"
         inkscape:connector-curvature="0" /><path
         d="m 709.82,70.4023 c -1.086,0.3399 -2.66,0.5469 -4.152,0.5469 -2.383,0 -4.492,-1.0195 -5.984,-2.2461 V 44.4727 h -8.848 v 33.3476 h 6.191 l 0.957,-4.4883 h 0.204 c 1.015,2.3789 4.015,5.1016 7.96,5.1016 1.766,0 3.125,-0.2734 3.875,-0.4766 l -0.203,-7.5547"
         style="fill:#ffffff;fill-opacity:1;fill-rule:nonzero;stroke:none"
         id="path214"
         inkscape:connector-curvature="0" /><path
         d="m 717.633,91.4336 h 8.984 V 83.332 h -8.984 z m 0.273,-46.9609 v 26.9492 l -3.886,0.8164 v 5.582 h 12.734 V 44.4727 h -8.848"
         style="fill:#ffffff;fill-opacity:1;fill-rule:nonzero;stroke:none"
         id="path216"
         inkscape:connector-curvature="0" /><path
         d="M 764.293,65.0938 V 44.4727 h -8.977 v 19.8046 c 0,5.0352 -1.843,7.418 -5.996,7.418 -2.312,0 -4.082,-1.0195 -5.644,-2.039 V 44.4727 h -8.914 v 33.3476 h 5.984 l 1.504,-3.8789 c 1.906,2.3164 5.168,4.5625 9.863,4.5625 5.442,0 8.711,-1.6367 10.41,-4.6992 1.973,2.3828 5.45,4.6992 10.079,4.6992 9.523,0 12.316,-4.9726 12.316,-13.4101 V 44.4727 h -9.055 v 19.8046 c 0,5.0352 -2.109,7.418 -6.258,7.418 -2.179,0 -4.152,-1.0195 -5.644,-2.039 0.262,-1.3633 0.332,-2.9258 0.332,-4.5625"
         style="fill:#ffffff;fill-opacity:1;fill-rule:nonzero;stroke:none"
         id="path218"
         inkscape:connector-curvature="0" /><path
         d="m 812.906,61.2188 c 0,8.0273 -2.383,10.8203 -6.535,10.8203 -4.148,0 -6.465,-2.8633 -6.465,-10.8203 0,-7.7579 2.11,-10.8907 6.465,-10.8907 4.356,0 6.535,2.9258 6.535,10.8907 z m 9.121,0 c 0,-11.3672 -5.714,-17.4219 -15.656,-17.4219 -10,0 -15.644,5.9844 -15.644,17.4219 0,9.7968 5.441,17.2851 15.644,17.2851 10.078,0 15.656,-7.4883 15.656,-17.2851"
         style="fill:#ffffff;fill-opacity:1;fill-rule:nonzero;stroke:none"
         id="path220"
         inkscape:connector-curvature="0" /><path
         d="m 849.352,44.4727 v 19.8046 c 0,5.0352 -1.907,7.418 -5.989,7.418 -2.312,0 -4.285,-1.0195 -5.847,-2.039 V 44.4727 h -8.918 v 33.3476 h 6.125 l 1.367,-3.8086 c 1.902,2.2461 5.574,4.4922 10.547,4.4922 8.437,0 11.765,-4.9726 11.765,-13.4101 V 44.4727 h -9.05"
         style="fill:#ffffff;fill-opacity:1;fill-rule:nonzero;stroke:none"
         id="path222"
         inkscape:connector-curvature="0" /><path
         d="m 868.109,91.4336 h 8.985 V 83.332 h -8.985 z m 0.274,-46.9609 v 26.9492 l -3.887,0.8164 v 5.582 H 877.23 V 44.4727 h -8.847"
         style="fill:#ffffff;fill-opacity:1;fill-rule:nonzero;stroke:none"
         id="path224"
         inkscape:connector-curvature="0" /><path
         d="m 906.129,61.2188 c 0,8.0273 -2.383,10.8203 -6.535,10.8203 -4.149,0 -6.465,-2.8633 -6.465,-10.8203 0,-7.7579 2.109,-10.8907 6.465,-10.8907 4.355,0 6.535,2.9258 6.535,10.8907 z m 9.121,0 c 0,-11.3672 -5.715,-17.4219 -15.656,-17.4219 -10,0 -15.645,5.9844 -15.645,17.4219 0,9.7968 5.442,17.2851 15.645,17.2851 10.078,0 15.656,-7.4883 15.656,-17.2851"
         style="fill:#ffffff;fill-opacity:1;fill-rule:nonzero;stroke:none"
         id="path226"
         inkscape:connector-curvature="0" /></g></g></svg>